<svg id="Layer_1" data-name="Layer 1" xmlns="http://www.w3.org/2000/svg" xmlns:xlink="http://www.w3.org/1999/xlink" viewBox="0 0 1920 1080"><defs><style>.cls-1{fill:none;}.cls-2{fill:url(#New_Pattern);}</style><pattern id="New_Pattern" data-name="New Pattern" width="263.55" height="188.98" patternUnits="userSpaceOnUse" viewBox="0 0 263.55 188.98"><rect class="cls-1" width="263.55" height="188.98"/><path d="M331.75,107.22a7.72,7.72,0,0,1-.09,1.1,12.13,12.13,0,0,1-.24,1.33,14.09,14.09,0,0,1-.39,1.44,13.37,13.37,0,0,1-.53,1.42,10.19,10.19,0,0,1-.67,1.27,5.57,5.57,0,0,1-.77,1,2,2,0,0,1-.88.54,2.06,2.06,0,0,1-1,0,3.94,3.94,0,0,1-1.06-.34,10.23,10.23,0,0,1-1.17-.66,13.61,13.61,0,0,1,.12,1.77,10.55,10.55,0,0,1-.14,1.64,7.26,7.26,0,0,1-.42,1.41,3.52,3.52,0,0,1-.72,1.08,2.66,2.66,0,0,1-.8.55,1.91,1.91,0,0,1-1,.16,2.78,2.78,0,0,1-1.1-.34,9.79,9.79,0,0,1-.35,1.47,9,9,0,0,1-.76,1.74,7.17,7.17,0,0,1-1.08,1.42,5.23,5.23,0,0,1-1.47,1.09,2.81,2.81,0,0,1-1.28.27,2.32,2.32,0,0,1-1.1-.33,4,4,0,0,1-.93-.72,4.7,4.7,0,0,1-.55-.67,6,6,0,0,1-.6-1,10.43,10.43,0,0,1-.53-1.48,13.09,13.09,0,0,1-.39-2c0-.26,0-.5,0-.71v-.57a2.42,2.42,0,0,0-.05-.42.64.64,0,0,0-.17-.3,1,1,0,0,0-.45-.28.35.35,0,0,0-.37.09,1.12,1.12,0,0,0-.24.72,4.49,4.49,0,0,0,.19,1.48l2.42,8.82a2.53,2.53,0,0,1,.09,1.12,1.62,1.62,0,0,1-.45.79,1.73,1.73,0,0,1-.94.54,1.79,1.79,0,0,1-1-.13,3.76,3.76,0,0,1-1-.62c-.33-.27-.66-.58-1-.92a1.06,1.06,0,0,0-.15-.15,11.92,11.92,0,0,1-.51,1.91,14.64,14.64,0,0,1-.79,1.83c-.31.59-.66,1.21-1.05,1.83a3.53,3.53,0,0,1-.14.88c-.09.34-.19.66-.3,1s-.27.73-.43,1.11l-.28.28a9.65,9.65,0,0,1-2.09,1.58,18.56,18.56,0,0,1-2.22,1.07l-1,.39c0,.13,0,.27,0,.41a8.16,8.16,0,0,1-.4,1.84,3.73,3.73,0,0,1-.9,1.49,2.35,2.35,0,0,1-1.66.74,5.32,5.32,0,0,1-2.18-.52,8.1,8.1,0,0,1-.28,2.67,8,8,0,0,1-.52,1.36,4.15,4.15,0,0,1-.82,1.14,3.66,3.66,0,0,1-1.23.81,3.75,3.75,0,0,1-1.49.27,4.2,4.2,0,0,1-1.58-.36,4.93,4.93,0,0,1-1.52-1.06,9.49,9.49,0,0,1-1.43-1.88l-.18.36a16.92,16.92,0,0,1-1,1.63,13.52,13.52,0,0,1-1.21,1.47q1,.43,1.95,1c.56.31,1.15.68,1.79,1.12a12.21,12.21,0,0,1,1.75,1.46l.63.69a16.39,16.39,0,0,1,1.08,1.34,16,16,0,0,1,1.15,1.8,8.38,8.38,0,0,1,.82,2,4.87,4.87,0,0,1,.1,2,3.29,3.29,0,0,1-1,1.85,2.77,2.77,0,0,1-1.75.85,4.48,4.48,0,0,1-2.16-.43,12.38,12.38,0,0,1-2.56-1.6,33.34,33.34,0,0,1-2.94-2.66,6.38,6.38,0,0,1-.57-.66l-.23-.29-.07.22a12.9,12.9,0,0,1-.81,2,6,6,0,0,1-1.1,1.56,3.58,3.58,0,0,1-1.11.8,2.28,2.28,0,0,1-1.07.18,2.38,2.38,0,0,1-1-.35,5.78,5.78,0,0,1-.79-.59c0,.52-.06,1-.11,1.51a19.1,19.1,0,0,1-.51,2.7,11.31,11.31,0,0,1-.83,2.16,6.39,6.39,0,0,1-1.09,1.53,4.46,4.46,0,0,1-1.53,1,4,4,0,0,1-1.76.27,5.06,5.06,0,0,1-1.89-.52,7,7,0,0,1-1.88-1.38,8.36,8.36,0,0,1-.73-.86c-.27-.36-.57-.79-.9-1.28s-.66-1-1-1.64-.74-1.24-1.13-1.92l-2.51,3.08L257.37,172c.4.81.8,1.61,1.18,2.39s.75,1.53,1.07,2.23.63,1.33.9,1.91.49,1.08.68,1.49a7.72,7.72,0,0,1,.6,2.67,2.07,2.07,0,0,1-.43,1.39,2.49,2.49,0,0,1-.6.42,2,2,0,0,1-.7.2,1.82,1.82,0,0,1-.7-.08,1.64,1.64,0,0,1-.63-.4,1.74,1.74,0,0,1-.29-.38c-.81-1.42-1.55-2.82-2.23-4.22s-1.31-2.76-1.92-4.11a10.08,10.08,0,0,1-1.25,1.05,4.91,4.91,0,0,1-1.34.7,3.75,3.75,0,0,1-1.46.2,4.37,4.37,0,0,1-1.63-.42l-.42-.28a2.16,2.16,0,0,1-.33-.27c-.32-.32-.37-.6-.14-.82a1,1,0,0,1,.68-.24,9.33,9.33,0,0,1,1.35.08l1-1.06,1.09-1.11,1-1.05c-.41-.93-.82-1.84-1.21-2.7s-.79-1.7-1.19-2.5a11.54,11.54,0,0,0-.86-1.45,8.11,8.11,0,0,0-1-1.21,5,5,0,0,0-.86-.71,2.33,2.33,0,0,0-.86-.36,1.84,1.84,0,0,0-.84.05,2.15,2.15,0,0,0-.82.54,4.57,4.57,0,0,0-.64.86,7,7,0,0,0-.6,1.31,13.9,13.9,0,0,0-.5,1.78c-.14.68-.26,1.45-.35,2.32a2.44,2.44,0,0,1-.17.76,1.27,1.27,0,0,1-.3.47c0,.06-.19,0-.41-.15a6.88,6.88,0,0,1-.76-.67,3.22,3.22,0,0,1-.81-1.35,5,5,0,0,1-.23-1.66,8.42,8.42,0,0,1,.24-1.81,13.57,13.57,0,0,1,.6-1.8,11.58,11.58,0,0,1,.85-1.6,7.79,7.79,0,0,1,1-1.25,7.08,7.08,0,0,1,1.67-1.25,4.48,4.48,0,0,1,3.92-.22,6.44,6.44,0,0,1,2.08,1.47,11.06,11.06,0,0,1,1.09,1.31c.39.55.81,1.17,1.24,1.86s.87,1.45,1.33,2.26.92,1.66,1.37,2.52c.7-.8,1.49-1.69,2.38-2.68l2.67-3q-1.26-2.38-2.54-5t-2.4-5.24a3.92,3.92,0,0,1-.33-1.65,2,2,0,0,1,.6-1.34,2.23,2.23,0,0,1,.5-.37,1.56,1.56,0,0,1,.58-.18,1.41,1.41,0,0,1,.6.1,1.67,1.67,0,0,1,.59.4,7.44,7.44,0,0,1,.55.62,3.88,3.88,0,0,1,.54.88c.28.62.59,1.28.91,2s.66,1.42,1,2.15.71,1.48,1.08,2.24.76,1.51,1.14,2.24l1.12-1.28.71-.83a2.57,2.57,0,0,1,.21-.24,1.8,1.8,0,0,1,.18-.2,2.4,2.4,0,0,1,.6-.46,1,1,0,0,1,.5-.13.88.88,0,0,1,.44.12,2,2,0,0,1,.41.33,1,1,0,0,1,.29.48,1.35,1.35,0,0,1,0,.49,1.7,1.7,0,0,1-.18.44,3.54,3.54,0,0,1-.26.35l-.39.49c-.07.1-.13.16-.16.2l-.06.09-.07.09-.21.24c-.1.12-.26.3-.46.55l-.69.84-.68.81c.64,1.15,1.27,2.19,1.89,3.11a14.22,14.22,0,0,0,1.78,2.24,2.63,2.63,0,0,0,1.47.85,1.67,1.67,0,0,0,1.45-.61,2.51,2.51,0,0,0,.49-.81,6.59,6.59,0,0,0,.38-1.37,17.64,17.64,0,0,0,.22-2c0-.76.07-1.63.07-2.62l.44.17.38.17c-.36-.53-.71-1.09-1.07-1.67-.5-.8-1-1.61-1.46-2.43s-.92-1.56-1.34-2.23a1.44,1.44,0,0,1-.18-.79,2.83,2.83,0,0,1,.19-.85,4.21,4.21,0,0,1,.42-.78,3.29,3.29,0,0,1,.5-.62,1.16,1.16,0,0,1,.79-.45.87.87,0,0,1,.61.28,4.71,4.71,0,0,1,.59.8c.23.38.48.81.75,1.3s.56,1,.88,1.58.64,1.12,1,1.67.67,1.06,1,1.55a10,10,0,0,0,1,1.24,3.12,3.12,0,0,0,.89.67.6.6,0,0,0,.73-.16,2.37,2.37,0,0,0,.6-1.14,10.94,10.94,0,0,0,.31-1.61l0-.07c-.43-.59-.87-1.19-1.31-1.82s-.86-1.26-1.28-1.9-.8-1.24-1.15-1.82-.63-1.1-.87-1.58a6.63,6.63,0,0,1-.47-1.18,1.61,1.61,0,0,1,0-.75,2,2,0,0,1,.24-.66,3.41,3.41,0,0,1,.43-.59l.51-.55a.93.93,0,0,1,.78-.32,1.11,1.11,0,0,1,.65.31,2.71,2.71,0,0,1,.35.48c.15.22.31.48.47.75s.31.54.44.8l.31.56,1.13,2.36c.34-.48.69-.91,1-1.32s.72-.86,1.1-1.38a17.08,17.08,0,0,0,1.18-1.87,21.11,21.11,0,0,0,1.23-2.74c-.08-.37-.15-.75-.21-1.13a10.92,10.92,0,0,1-.07-2.48,8.83,8.83,0,0,1,.51-2.24,5.12,5.12,0,0,1,1.16-1.8,1,1,0,0,1,.49-.29,1.19,1.19,0,0,1,.46,0l.42.06a.73.73,0,0,0,.39,0,1.27,1.27,0,0,0,.34-.2l.3-.26.24-.25.24-.25a1.63,1.63,0,0,1,.33-.27.68.68,0,0,1,.39-.11,1,1,0,0,1,.48.13,2.48,2.48,0,0,1,.59.48,9.46,9.46,0,0,1,1,1.27c.36.49.71,1,1.07,1.54s.73,1.06,1.1,1.58A11.71,11.71,0,0,0,295,142a4,4,0,0,0,.89.71.55.55,0,0,0,.69-.11,1.65,1.65,0,0,0,.37-.59,4,4,0,0,0,.2-.81,4.32,4.32,0,0,0,.07-.64c-.15-.18-.31-.36-.46-.55-.59-.7-1.26-1.53-2-2.5s-1.59-2.08-2.48-3.32q-.9-1.25-2-2.82t-2-3.27c-.66-1.13-1.27-2.27-1.82-3.41a21.46,21.46,0,0,1-1.28-3.24,8.77,8.77,0,0,1-.41-2.77,2.77,2.77,0,0,1,.77-2,3.82,3.82,0,0,1,1.62-1,2.78,2.78,0,0,1,1.54,0,4.66,4.66,0,0,1,1.5.77,17.19,17.19,0,0,1,1.48,1.31,9.19,9.19,0,0,1,1.75,2.52,19,19,0,0,1,1.18,3.21,28.68,28.68,0,0,1,.75,3.53c.19,1.2.34,2.37.45,3.5l.29-.06a15.46,15.46,0,0,1-.11-2.34,2.1,2.1,0,0,1,.55-1.47,3.21,3.21,0,0,1,1.42-.86,3.76,3.76,0,0,1,1.6-.1,4.79,4.79,0,0,1,1.62.55,6,6,0,0,1,1.46,1.09c.37.37.7.73,1,1.09a9.83,9.83,0,0,1,.82,1.13,9.22,9.22,0,0,1,.62,1.26,8.19,8.19,0,0,1,.44,1.49c.11-.41.23-.82.35-1.24s.24-.84.33-1.29.18-.91.24-1.4c.05-.34.07-.71.09-1.09L305.31,126c-.76-.88-1.53-1.81-2.33-2.8s-1.54-2-2.25-3c-.24-.35-.54-.77-.88-1.28s-.71-1.06-1.07-1.67-.73-1.25-1.1-1.94-.68-1.39-1-2.1a17.31,17.31,0,0,1-.69-2.15,8.11,8.11,0,0,1-.28-2.08,5.46,5.46,0,0,1,.3-1.91,4.21,4.21,0,0,1,1-1.6,2.88,2.88,0,0,1,1.1-.73,2,2,0,0,1,1.07-.07,3,3,0,0,1,1.07.47,7.43,7.43,0,0,1,1,.88,12.47,12.47,0,0,1,1.76,2.23,27.64,27.64,0,0,1,1.55,2.73c.47,1,.91,1.91,1.3,2.87s.73,1.84,1,2.65.52,1.49.69,2.07.29,1,.34,1.13l.64,3.23.43-.09c-.08-.6-.16-1.25-.24-2s-.17-1.4-.23-2.07-.11-1.26-.14-1.8a5.23,5.23,0,0,1,0-1.17,4.27,4.27,0,0,1,.42-1.23,4.61,4.61,0,0,1,.92-1.26,1.78,1.78,0,0,1,.72-.44,2,2,0,0,1,.89-.08,2.66,2.66,0,0,1,1,.3,4,4,0,0,1,.95.71A3.06,3.06,0,0,1,314,115a9.6,9.6,0,0,1,.36,1.45q.13.78.21,1.62c.05.56.12,1.1.21,1.63a8.76,8.76,0,0,0,.38,1.47,3.07,3.07,0,0,0,.69,1.13,1.06,1.06,0,0,0,.76.37,1.22,1.22,0,0,0,.76-.43,1.34,1.34,0,0,0,.32-.62,4.54,4.54,0,0,0,.15-.91c0-.34,0-.7,0-1.08s0-.76-.06-1.14-.07-.73-.1-1.07c0,0,0-.07,0-.11-.73-1-1.54-2.14-2.45-3.43-.09-.12-.21-.3-.36-.52s-.29-.48-.44-.77-.28-.6-.41-.92a5.13,5.13,0,0,1-.25-1,2.63,2.63,0,0,1,0-.93,1.79,1.79,0,0,1,.44-.81,3.28,3.28,0,0,1,1-.69.53.53,0,0,1,.56.06l1.07,1.5,1.19,1.66c.4.56.79,1.11,1.18,1.63l1,1.41c.3.42.54.75.73,1l.29.39a2.47,2.47,0,0,0,.41.33,1.47,1.47,0,0,0,.44.21.86.86,0,0,0,.42,0,.63.63,0,0,0,.37-.19,1.65,1.65,0,0,0,.37-.62,2.45,2.45,0,0,0,.11-.83,3.64,3.64,0,0,0-.18-1,4,4,0,0,0-.52-1l-4.45-6.61a1,1,0,0,1,0-.88,2.92,2.92,0,0,1,.7-1.06,2.36,2.36,0,0,1,1.07-.68.82.82,0,0,1,.83.17,9.1,9.1,0,0,1,.74.87c.29.38.61.8.94,1.28l1,1.47,1,1.42c.3.44.57.82.8,1.14a6.1,6.1,0,0,0,.52.65l.57.55a2.73,2.73,0,0,0,.52.38.92.92,0,0,0,.46.13.71.71,0,0,0,.43-.23,2.73,2.73,0,0,0,.47-.7,8.41,8.41,0,0,0,.41-1.06c.12-.39.23-.8.33-1.24s.17-.88.23-1.31.09-.84.1-1.23a7.79,7.79,0,0,0,0-1l.66.65.56.56.56.54ZM287,157.75a9,9,0,0,0-.76-.66c-.3-.24-.62-.47-.95-.71s-.67-.46-1-.69l-1-.65c-.8-.48-1.64-1-2.51-1.44q1.41,2,2.93,3.89a44.74,44.74,0,0,0,3.36,3.75,7.82,7.82,0,0,0,1.07.92,4.38,4.38,0,0,0,.83.45,1.49,1.49,0,0,0,.58.12.47.47,0,0,0,.31-.1.9.9,0,0,0,.18-1,4.51,4.51,0,0,0-.66-1.29,14.28,14.28,0,0,0-1.11-1.38C287.78,158.54,287.38,158.12,287,157.75ZM288.3,139a2.69,2.69,0,0,0-.64,1.1,4.51,4.51,0,0,0-.2,1.4,7.21,7.21,0,0,0,.18,1.57,10.55,10.55,0,0,0,.48,1.57,9.72,9.72,0,0,0,.73,1.44,6.38,6.38,0,0,0,.9,1.15,5.27,5.27,0,0,0,.57.49,2.45,2.45,0,0,0,.59.32,1.35,1.35,0,0,0,.59.07,1,1,0,0,0,.54-.29,1.37,1.37,0,0,0,.38-1.08,4.61,4.61,0,0,0-.27-1.41,9.23,9.23,0,0,0-.63-1.4,8.25,8.25,0,0,0-.68-1.06Zm5.34-8.1c-.18-.57-.35-1.18-.52-1.84s-.34-1.31-.53-2-.4-1.38-.63-2.07a21.21,21.21,0,0,0-.77-2.06,16.2,16.2,0,0,0-1-2,11.72,11.72,0,0,0-1.28-1.77,1.66,1.66,0,0,0-.2-.17,1.63,1.63,0,0,0-.37-.21,1.14,1.14,0,0,0-.44-.11.5.5,0,0,0-.41.18.86.86,0,0,0-.14.76,5.71,5.71,0,0,0,.37,1.3,17,17,0,0,0,.78,1.67c.31.6.65,1.23,1,1.87s.75,1.29,1.15,1.93.79,1.25,1.16,1.81.72,1.08,1,1.54Zm7-.7a3,3,0,0,0-.57-.45,1.44,1.44,0,0,0-.65-.22,1.7,1.7,0,0,0-.74.14,2.51,2.51,0,0,0-.81.59,2.69,2.69,0,0,0-.61.92,3.09,3.09,0,0,0-.22,1.2,4.57,4.57,0,0,0,.28,1.42,6.31,6.31,0,0,0,.87,1.62c.33.46.64.87.92,1.25l.77,1,.74.9c.31-.17.62-.35.91-.54s.51-.34.78-.54a6.4,6.4,0,0,0,.72-.61,1.63,1.63,0,0,0,.46-.89,3.35,3.35,0,0,0,0-1.13,6.13,6.13,0,0,0-.42-1.25,11.07,11.07,0,0,0-.69-1.26c-.27-.41-.55-.8-.84-1.16A12.5,12.5,0,0,0,300.61,130.22Zm4.92-9.74c-.37-.75-.74-1.49-1.1-2.23s-.71-1.43-1-2.08l-.84-1.65c-.11-.22-.23-.49-.38-.82s-.3-.7-.47-1.08-.34-.78-.53-1.19l-.56-1.16c-.19-.36-.37-.7-.55-1a3.63,3.63,0,0,0-.53-.7q-.34-.35-.57-.12a1.23,1.23,0,0,0-.38.82,3,3,0,0,0,.14,1.09,11.1,11.1,0,0,0,.54,1.43l.78,1.79c.29.53.62,1.07,1,1.61s.7,1.07,1.06,1.59.72,1,1.09,1.51.71,1,1.05,1.37c.78,1,1.57,2,2.37,2.9C306.25,121.93,305.91,121.23,305.53,120.48Z"/><path d="M68.2,107.22a9.33,9.33,0,0,1-.08,1.1c-.06.42-.14.86-.24,1.33s-.24.95-.4,1.44a13.37,13.37,0,0,1-.53,1.42,11.67,11.67,0,0,1-.66,1.27,6.09,6.09,0,0,1-.78,1,2.06,2.06,0,0,1-.87.54,2.11,2.11,0,0,1-1,0,3.94,3.94,0,0,1-1.06-.34,10.23,10.23,0,0,1-1.17-.66,13.61,13.61,0,0,1,.12,1.77,10.55,10.55,0,0,1-.14,1.64A6.1,6.1,0,0,1,61,119.2a3.52,3.52,0,0,1-.72,1.08,2.66,2.66,0,0,1-.8.55,1.91,1.91,0,0,1-1,.16,2.83,2.83,0,0,1-1.1-.34,11.14,11.14,0,0,1-.34,1.47,9.69,9.69,0,0,1-.77,1.74,7.54,7.54,0,0,1-1.07,1.42,5.4,5.4,0,0,1-1.48,1.09,2.81,2.81,0,0,1-1.28.27,2.32,2.32,0,0,1-1.1-.33,4.22,4.22,0,0,1-.93-.72,5.49,5.49,0,0,1-.55-.67,6.65,6.65,0,0,1-.6-1,10.43,10.43,0,0,1-.53-1.48,14.46,14.46,0,0,1-.39-2c0-.26,0-.5,0-.71v-.57a1.73,1.73,0,0,0,0-.42.62.62,0,0,0-.16-.3,1.1,1.1,0,0,0-.46-.28.36.36,0,0,0-.37.09,1.18,1.18,0,0,0-.24.72,4.49,4.49,0,0,0,.19,1.48l2.42,8.82a2.27,2.27,0,0,1,.09,1.12,1.54,1.54,0,0,1-.45.79,1.73,1.73,0,0,1-.94.54,1.81,1.81,0,0,1-1-.13,3.76,3.76,0,0,1-1-.62c-.33-.27-.66-.58-1-.92l-.15-.15a13.08,13.08,0,0,1-.52,1.91,14.64,14.64,0,0,1-.79,1.83c-.31.59-.66,1.21-1.05,1.83a3.53,3.53,0,0,1-.14.88c-.09.34-.19.66-.3,1s-.26.73-.43,1.11l-.27.28a10,10,0,0,1-2.1,1.58,18.56,18.56,0,0,1-2.22,1.07l-1,.39,0,.41a8.18,8.18,0,0,1-.41,1.84,3.73,3.73,0,0,1-.9,1.49,2.34,2.34,0,0,1-1.66.74,5.32,5.32,0,0,1-2.18-.52,6.72,6.72,0,0,1,0,1.26,7.76,7.76,0,0,1-.26,1.41,7.2,7.2,0,0,1-.52,1.36,4.15,4.15,0,0,1-.82,1.14,3.66,3.66,0,0,1-1.23.81,3.75,3.75,0,0,1-1.49.27,4.2,4.2,0,0,1-1.58-.36,4.93,4.93,0,0,1-1.52-1.06,9.09,9.09,0,0,1-1.42-1.88c-.06.12-.12.25-.19.36a15.13,15.13,0,0,1-1,1.63,13.52,13.52,0,0,1-1.21,1.47q1,.43,2,1a20.31,20.31,0,0,1,1.79,1.12,12.21,12.21,0,0,1,1.75,1.46q.15.14.63.69c.33.36.69.81,1.09,1.34a17.51,17.51,0,0,1,1.15,1.8,8.34,8.34,0,0,1,.81,2,5,5,0,0,1,.11,2,3.37,3.37,0,0,1-1,1.85,2.77,2.77,0,0,1-1.74.85,4.49,4.49,0,0,1-2.17-.43,12.65,12.65,0,0,1-2.56-1.6,34.82,34.82,0,0,1-2.94-2.66,6.38,6.38,0,0,1-.57-.66l-.23-.29a1.87,1.87,0,0,1-.07.22,14,14,0,0,1-.8,2,6.22,6.22,0,0,1-1.11,1.56,3.58,3.58,0,0,1-1.11.8,2.26,2.26,0,0,1-1.07.18,2.3,2.3,0,0,1-1-.35,5.3,5.3,0,0,1-.8-.59c0,.52-.06,1-.11,1.51a17.78,17.78,0,0,1-.51,2.7,10.68,10.68,0,0,1-.83,2.16A6.12,6.12,0,0,1,9.6,172.3a4.28,4.28,0,0,1-1.53,1,4,4,0,0,1-1.76.27,5.12,5.12,0,0,1-1.89-.52,7,7,0,0,1-1.88-1.38,8.36,8.36,0,0,1-.73-.86c-.27-.36-.57-.79-.89-1.28s-.67-1-1-1.64-.74-1.24-1.14-1.92l-2.51,3.08L-6.18,172c.41.81.8,1.61,1.19,2.39s.74,1.53,1.06,2.23.63,1.33.9,1.91.49,1.08.68,1.49a7.5,7.5,0,0,1,.6,2.67,2,2,0,0,1-.43,1.39,2.49,2.49,0,0,1-.6.42,2,2,0,0,1-.7.2,1.84,1.84,0,0,1-.7-.08,1.64,1.64,0,0,1-.63-.4,2.12,2.12,0,0,1-.29-.38c-.81-1.42-1.55-2.82-2.22-4.22s-1.32-2.76-1.93-4.11a10.79,10.79,0,0,1-1.24,1.05,5.21,5.21,0,0,1-1.34.7,3.82,3.82,0,0,1-1.47.2,4.42,4.42,0,0,1-1.63-.42l-.42-.28a2.16,2.16,0,0,1-.33-.27c-.32-.32-.37-.6-.14-.82a1,1,0,0,1,.68-.24,9.46,9.46,0,0,1,1.36.08c.32-.36.65-.71,1-1.06s.69-.72,1.09-1.11l1-1.05c-.41-.93-.82-1.84-1.21-2.7s-.79-1.7-1.18-2.5a12.94,12.94,0,0,0-.87-1.45,8.11,8.11,0,0,0-1-1.21,5,5,0,0,0-.86-.71,2.26,2.26,0,0,0-.86-.36,1.84,1.84,0,0,0-.84.05,2.13,2.13,0,0,0-.81.54,4.19,4.19,0,0,0-.65.86,7,7,0,0,0-.6,1.31,13.9,13.9,0,0,0-.5,1.78,21,21,0,0,0-.34,2.32,2.77,2.77,0,0,1-.17.76,1.59,1.59,0,0,1-.3.47q-.09.09-.42-.15a7.94,7.94,0,0,1-.76-.67,3.22,3.22,0,0,1-.81-1.35,5.29,5.29,0,0,1-.23-1.66,7.87,7.87,0,0,1,.25-1.81,12.22,12.22,0,0,1,.59-1.8,11.58,11.58,0,0,1,.85-1.6,7.3,7.3,0,0,1,1-1.25,6.83,6.83,0,0,1,1.66-1.25,4.44,4.44,0,0,1,1.89-.56,4.48,4.48,0,0,1,2,.34,6.34,6.34,0,0,1,2.08,1.47,11.06,11.06,0,0,1,1.09,1.31c.39.55.81,1.17,1.24,1.86s.88,1.45,1.33,2.26.92,1.66,1.38,2.52c.69-.8,1.49-1.69,2.37-2.68l2.67-3q-1.26-2.38-2.54-5t-2.39-5.24a3.79,3.79,0,0,1-.34-1.65,2,2,0,0,1,.6-1.34,2.23,2.23,0,0,1,.5-.37,1.56,1.56,0,0,1,.58-.18,1.48,1.48,0,0,1,.61.1,1.64,1.64,0,0,1,.58.4,7.44,7.44,0,0,1,.55.62,3.88,3.88,0,0,1,.54.88c.29.62.59,1.28.91,2s.66,1.42,1,2.15.71,1.48,1.08,2.24.76,1.51,1.14,2.24L1.32,159l.71-.83c.08-.09.14-.17.21-.24s.13-.14.18-.2a2.4,2.4,0,0,1,.6-.46,1,1,0,0,1,.5-.13.86.86,0,0,1,.44.12,1.75,1.75,0,0,1,.41.33,1,1,0,0,1,.29.48,1.35,1.35,0,0,1,0,.49,1.7,1.7,0,0,1-.18.44,3.54,3.54,0,0,1-.26.35l-.38.49-.17.2-.06.09-.07.09-.21.24c-.1.12-.26.3-.46.55l-.69.84-.68.81c.64,1.15,1.27,2.19,1.89,3.11A14.22,14.22,0,0,0,5.17,168a2.63,2.63,0,0,0,1.47.85,1.67,1.67,0,0,0,1.45-.61,2.34,2.34,0,0,0,.49-.81A6.59,6.59,0,0,0,9,166.08a15.54,15.54,0,0,0,.22-2c.05-.76.07-1.63.07-2.62l.44.17.39.17c-.36-.53-.72-1.09-1.08-1.67-.5-.8-1-1.61-1.46-2.43s-.92-1.56-1.34-2.23a1.53,1.53,0,0,1-.18-.79,2.84,2.84,0,0,1,.2-.85,3.64,3.64,0,0,1,.41-.78,3.74,3.74,0,0,1,.5-.62,1.18,1.18,0,0,1,.79-.45.91.91,0,0,1,.62.28,4.78,4.78,0,0,1,.58.8c.23.38.48.81.75,1.3l.88,1.58c.32.56.64,1.12,1,1.67s.67,1.06,1,1.55a9.12,9.12,0,0,0,1,1.24,3.27,3.27,0,0,0,.89.67.61.61,0,0,0,.74-.16,2.56,2.56,0,0,0,.6-1.14,11,11,0,0,0,.3-1.61l0-.07c-.43-.59-.87-1.19-1.3-1.82s-.87-1.26-1.29-1.9-.8-1.24-1.14-1.82-.64-1.1-.88-1.58a6.63,6.63,0,0,1-.47-1.18,1.75,1.75,0,0,1,0-.75,2,2,0,0,1,.24-.66,4,4,0,0,1,.43-.59c.17-.19.34-.37.52-.55a.9.9,0,0,1,.77-.32,1.08,1.08,0,0,1,.65.31,3.23,3.23,0,0,1,.36.48c.15.22.3.48.46.75s.31.54.45.8l.3.56,1.13,2.36c.35-.48.69-.91,1-1.32a17.52,17.52,0,0,0,1.1-1.38,15.69,15.69,0,0,0,1.18-1.87A22.43,22.43,0,0,0,21,144.91a10.71,10.71,0,0,1-.21-1.13,10.93,10.93,0,0,1-.08-2.48,8.43,8.43,0,0,1,.52-2.24,5.1,5.1,0,0,1,1.15-1.8,1,1,0,0,1,.49-.29,1.19,1.19,0,0,1,.46,0l.42.06a.78.78,0,0,0,.4,0,1.38,1.38,0,0,0,.33-.2,3.73,3.73,0,0,0,.3-.26l.24-.25.24-.25a2,2,0,0,1,.33-.27.69.69,0,0,1,.4-.11,1,1,0,0,1,.47.13,2.48,2.48,0,0,1,.59.48,10.3,10.3,0,0,1,1.06,1.27c.35.49.7,1,1.06,1.54s.73,1.06,1.1,1.58A11.71,11.71,0,0,0,31.43,142a3.76,3.76,0,0,0,.9.71.54.54,0,0,0,.68-.11,1.53,1.53,0,0,0,.37-.59,4,4,0,0,0,.2-.81,6.21,6.21,0,0,0,.08-.64l-.47-.55c-.58-.7-1.26-1.53-2-2.5s-1.6-2.08-2.49-3.32q-.9-1.25-1.95-2.82t-2-3.27c-.66-1.13-1.27-2.27-1.82-3.41a21.46,21.46,0,0,1-1.28-3.24,8.77,8.77,0,0,1-.41-2.77,2.74,2.74,0,0,1,.78-2,3.79,3.79,0,0,1,1.61-1,2.78,2.78,0,0,1,1.54,0,4.66,4.66,0,0,1,1.5.77,15.81,15.81,0,0,1,1.48,1.31,9.19,9.19,0,0,1,1.75,2.52A19,19,0,0,1,31,123.49a30.67,30.67,0,0,1,.76,3.53c.18,1.2.33,2.37.44,3.5l.29-.06a15.46,15.46,0,0,1-.11-2.34,2.1,2.1,0,0,1,.55-1.47,3.26,3.26,0,0,1,1.42-.86,3.8,3.8,0,0,1,1.61-.1,4.81,4.81,0,0,1,1.61.55,6,6,0,0,1,1.46,1.09c.37.37.7.73,1,1.09a9.74,9.74,0,0,1,.81,1.13,7.38,7.38,0,0,1,.62,1.26,8.19,8.19,0,0,1,.44,1.49c.11-.41.23-.82.35-1.24s.24-.84.34-1.29.17-.91.23-1.4c0-.34.07-.71.09-1.09-.38-.42-.77-.86-1.17-1.33-.76-.88-1.54-1.81-2.34-2.8s-1.54-2-2.25-3c-.24-.35-.54-.77-.88-1.28s-.7-1.06-1.07-1.67-.73-1.25-1.1-1.94a21.94,21.94,0,0,1-1-2.1,15.84,15.84,0,0,1-.7-2.15,8.58,8.58,0,0,1-.28-2.08,6,6,0,0,1,.3-1.91,4.21,4.21,0,0,1,1-1.6,2.88,2.88,0,0,1,1.1-.73,2,2,0,0,1,1.07-.07,3,3,0,0,1,1.07.47,7.48,7.48,0,0,1,1.06.88,12.91,12.91,0,0,1,1.75,2.23A25.76,25.76,0,0,1,41.1,111c.48,1,.91,1.91,1.3,2.87s.73,1.84,1,2.65.51,1.49.68,2.07.29,1,.34,1.13l.64,3.23.43-.09c-.08-.6-.16-1.25-.24-2s-.16-1.4-.23-2.07-.1-1.26-.14-1.8a5.92,5.92,0,0,1,0-1.17,4.27,4.27,0,0,1,.42-1.23,4.61,4.61,0,0,1,.92-1.26,1.78,1.78,0,0,1,.72-.44,2,2,0,0,1,.89-.08,2.66,2.66,0,0,1,1,.3,3.79,3.79,0,0,1,1,.71,2.93,2.93,0,0,1,.68,1.12,8.54,8.54,0,0,1,.36,1.45q.13.78.21,1.62c0,.56.12,1.1.21,1.63a8.76,8.76,0,0,0,.38,1.47,3,3,0,0,0,.7,1.13,1,1,0,0,0,.75.37,1.22,1.22,0,0,0,.76-.43,1.35,1.35,0,0,0,.33-.62,4.58,4.58,0,0,0,.14-.91,9.63,9.63,0,0,0,0-1.08c0-.39,0-.76-.06-1.14s-.07-.73-.1-1.07c0,0,0-.07,0-.11-.72-1-1.54-2.14-2.45-3.43-.09-.12-.21-.3-.35-.52a8.75,8.75,0,0,1-.45-.77c-.14-.29-.28-.6-.4-.92a4,4,0,0,1-.25-1,2.42,2.42,0,0,1,0-.93,1.79,1.79,0,0,1,.44-.81,3.28,3.28,0,0,1,1-.69.53.53,0,0,1,.56.06l1.07,1.5,1.2,1.66,1.17,1.63,1,1.41c.29.42.53.75.72,1l.29.39a2.47,2.47,0,0,0,.41.33,1.47,1.47,0,0,0,.44.21.87.87,0,0,0,.42,0,.63.63,0,0,0,.37-.19,1.65,1.65,0,0,0,.37-.62,2.45,2.45,0,0,0,.11-.83,3,3,0,0,0-.18-1,4.34,4.34,0,0,0-.51-1l-4.46-6.61a1,1,0,0,1,0-.88,2.92,2.92,0,0,1,.7-1.06,2.33,2.33,0,0,1,1.08-.68.8.8,0,0,1,.82.17,7.84,7.84,0,0,1,.74.87c.29.38.61.8.94,1.28s.68,1,1,1.47.67,1,1,1.42.57.82.81,1.14a5.23,5.23,0,0,0,.51.65c.21.2.4.39.58.55a2.41,2.41,0,0,0,.51.38,1,1,0,0,0,.46.13.73.73,0,0,0,.44-.23,2.73,2.73,0,0,0,.46-.7,8.41,8.41,0,0,0,.41-1.06c.12-.39.23-.8.33-1.24s.17-.88.23-1.31.09-.84.1-1.23a5.31,5.31,0,0,0,0-1l.66.65.57.56.55.54C67.75,106.78,68,107,68.2,107.22ZM23.46,157.75a9,9,0,0,0-.76-.66c-.3-.24-.61-.47-.95-.71l-1-.69L19.68,155c-.8-.48-1.63-1-2.51-1.44q1.41,2,2.93,3.89a44.74,44.74,0,0,0,3.36,3.75,8.46,8.46,0,0,0,1.07.92,4.42,4.42,0,0,0,.84.45,1.45,1.45,0,0,0,.57.12.47.47,0,0,0,.31-.1.9.9,0,0,0,.18-1,4.51,4.51,0,0,0-.66-1.29A12.91,12.91,0,0,0,24.66,159C24.23,158.54,23.83,158.12,23.46,157.75ZM24.76,139a2.6,2.6,0,0,0-.65,1.1,4.51,4.51,0,0,0-.2,1.4,8.69,8.69,0,0,0,.18,1.57,9.52,9.52,0,0,0,.49,1.57,8.84,8.84,0,0,0,.73,1.44,6.83,6.83,0,0,0,.89,1.15,6.44,6.44,0,0,0,.57.49,2.65,2.65,0,0,0,.59.32,1.35,1.35,0,0,0,.59.07,1,1,0,0,0,.54-.29,1.37,1.37,0,0,0,.38-1.08,4.61,4.61,0,0,0-.27-1.41A8.34,8.34,0,0,0,28,144a8.25,8.25,0,0,0-.68-1.06Zm5.33-8.1c-.18-.57-.35-1.18-.51-1.84s-.35-1.31-.54-2-.4-1.38-.62-2.07-.49-1.39-.78-2.06a16.2,16.2,0,0,0-1-2,11.66,11.66,0,0,0-1.27-1.77l-.2-.17a1.71,1.71,0,0,0-.38-.21,1.1,1.1,0,0,0-.44-.11.5.5,0,0,0-.41.18.86.86,0,0,0-.14.76,5.71,5.71,0,0,0,.37,1.3,17,17,0,0,0,.78,1.67c.31.6.65,1.23,1,1.87s.75,1.29,1.16,1.93.79,1.25,1.16,1.81.71,1.08,1,1.54S29.9,130.64,30.09,130.92Zm7-.7a3.36,3.36,0,0,0-.58-.45,1.44,1.44,0,0,0-.65-.22,1.73,1.73,0,0,0-.74.14,2.51,2.51,0,0,0-.81.59,2.69,2.69,0,0,0-.61.92,3.09,3.09,0,0,0-.22,1.2,4.57,4.57,0,0,0,.28,1.42,6.63,6.63,0,0,0,.87,1.62c.33.46.64.87.92,1.25l.77,1,.74.9c.32-.17.62-.35.91-.54s.51-.34.78-.54a6.4,6.4,0,0,0,.72-.61,1.63,1.63,0,0,0,.46-.89,3.11,3.11,0,0,0,0-1.13,5.57,5.57,0,0,0-.42-1.25,11.07,11.07,0,0,0-.69-1.26c-.27-.41-.55-.8-.84-1.16A12.5,12.5,0,0,0,37.07,130.22ZM42,120.48c-.37-.75-.74-1.49-1.1-2.23s-.71-1.43-1-2.08-.6-1.2-.84-1.65l-.38-.82c-.14-.34-.3-.7-.47-1.08s-.34-.78-.53-1.19l-.56-1.16c-.19-.36-.37-.7-.55-1a4.09,4.09,0,0,0-.52-.7c-.24-.23-.43-.27-.58-.12a1.23,1.23,0,0,0-.38.82,3.26,3.26,0,0,0,.15,1.09,9.62,9.62,0,0,0,.53,1.43c.24.53.49,1.13.78,1.79s.62,1.07,1,1.61.7,1.07,1.06,1.59.72,1,1.09,1.51.72,1,1,1.37c.78,1,1.57,2,2.37,2.9C42.7,121.93,42.36,121.23,42,120.48Z"/><path d="M146.64,110.43a7.58,7.58,0,0,1-.08,1.1,12.13,12.13,0,0,1-.24,1.33,14.09,14.09,0,0,1-.39,1.44c-.16.49-.33,1-.53,1.42a10.19,10.19,0,0,1-.67,1.27,5.18,5.18,0,0,1-.78,1,1.94,1.94,0,0,1-.87.54,2.06,2.06,0,0,1-1,0,3.94,3.94,0,0,1-1.06-.34,10.23,10.23,0,0,1-1.17-.66,12,12,0,0,1,.11,1.77,9.45,9.45,0,0,1-.14,1.64,6.1,6.1,0,0,1-.42,1.41,3.35,3.35,0,0,1-.72,1.08,2.5,2.5,0,0,1-.79.55,1.91,1.91,0,0,1-1,.16,2.87,2.87,0,0,1-1.11-.34,8.67,8.67,0,0,1-.34,1.47,8.46,8.46,0,0,1-.77,1.74,6.77,6.77,0,0,1-1.07,1.42,5.23,5.23,0,0,1-1.47,1.09,2.87,2.87,0,0,1-1.28.27,2.32,2.32,0,0,1-1.1-.33,4,4,0,0,1-.93-.72,5.45,5.45,0,0,1-.56-.67,6.66,6.66,0,0,1-.59-1,10.43,10.43,0,0,1-.53-1.48,12,12,0,0,1-.39-2v-.71a5.39,5.39,0,0,0,0-.57,2.5,2.5,0,0,0,0-.42.61.61,0,0,0-.17-.29,1,1,0,0,0-.45-.29.38.38,0,0,0-.38.09,1.25,1.25,0,0,0-.24.72,4.55,4.55,0,0,0,.2,1.48l2.42,8.82a2.57,2.57,0,0,1,.09,1.13,1.63,1.63,0,0,1-.45.78,1.77,1.77,0,0,1-.94.54,1.79,1.79,0,0,1-1-.13,4,4,0,0,1-1-.62c-.32-.27-.66-.58-1-.92l-.15-.15a13.06,13.06,0,0,1-.51,1.91,14.64,14.64,0,0,1-.79,1.83q-.47.9-1,1.83a3.53,3.53,0,0,1-.14.88c-.09.34-.19.66-.3,1s-.27.73-.44,1.11l-.27.28a9.65,9.65,0,0,1-2.09,1.58,20.15,20.15,0,0,1-2.22,1.07q-.51.21-1,.39c0,.13,0,.27,0,.41a8.16,8.16,0,0,1-.4,1.84,3.74,3.74,0,0,1-.91,1.49,2.32,2.32,0,0,1-1.66.74,5.31,5.31,0,0,1-2.17-.52,8.1,8.1,0,0,1-.28,2.67,7.24,7.24,0,0,1-.53,1.36,4.33,4.33,0,0,1-.81,1.15,3.78,3.78,0,0,1-2.72,1.07,4.16,4.16,0,0,1-1.58-.36,4.93,4.93,0,0,1-1.52-1.06,9.13,9.13,0,0,1-1.43-1.88c-.06.12-.12.25-.18.36a16.92,16.92,0,0,1-1,1.63,13.52,13.52,0,0,1-1.21,1.47q1,.44,1.95,1a20.24,20.24,0,0,1,1.78,1.12,12.4,12.4,0,0,1,1.76,1.46l.63.69a16.39,16.39,0,0,1,1.08,1.34,16,16,0,0,1,1.15,1.8,8.8,8.8,0,0,1,.82,2,5,5,0,0,1,.1,2,3.35,3.35,0,0,1-1,1.85,2.77,2.77,0,0,1-1.75.85,4.48,4.48,0,0,1-2.16-.43,12.38,12.38,0,0,1-2.56-1.6,36.37,36.37,0,0,1-2.95-2.65c-.11-.12-.3-.34-.56-.67-.08-.09-.15-.19-.23-.29a1.87,1.87,0,0,0-.07.22A12.9,12.9,0,0,1,95.7,166a6,6,0,0,1-1.1,1.56,3.58,3.58,0,0,1-1.11.8,2.28,2.28,0,0,1-1.07.18,2.34,2.34,0,0,1-1-.35,5.23,5.23,0,0,1-.79-.59c0,.52-.06,1-.12,1.52a17.92,17.92,0,0,1-.5,2.69,11.31,11.31,0,0,1-.83,2.16,6.39,6.39,0,0,1-1.09,1.53,4.46,4.46,0,0,1-1.53,1,4.07,4.07,0,0,1-1.77.27,5.07,5.07,0,0,1-1.88-.52A7,7,0,0,1,81,174.9a8.36,8.36,0,0,1-.73-.86c-.28-.36-.57-.79-.9-1.28s-.66-1-1-1.64-.74-1.24-1.13-1.92l-2.52,3.08c-.8,1-1.61,1.95-2.41,2.92.4.81.8,1.61,1.18,2.39s.74,1.53,1.07,2.23.62,1.33.89,1.91l.69,1.49a7.66,7.66,0,0,1,.59,2.67,2,2,0,0,1-.43,1.39,2.15,2.15,0,0,1-.6.42,1.83,1.83,0,0,1-1.4.12,1.69,1.69,0,0,1-.62-.4,1.79,1.79,0,0,1-.3-.38c-.8-1.42-1.54-2.82-2.22-4.22s-1.32-2.76-1.93-4.11a9.21,9.21,0,0,1-1.24,1,5.06,5.06,0,0,1-1.34.7,3.75,3.75,0,0,1-1.46.2,4.33,4.33,0,0,1-1.63-.42L63.1,180a2.16,2.16,0,0,1-.33-.27c-.32-.32-.37-.6-.15-.82a1,1,0,0,1,.69-.24,9.4,9.4,0,0,1,1.35.08l1-1.06,1.09-1.11,1.05-1c-.42-.93-.82-1.84-1.21-2.7s-.79-1.7-1.19-2.5a12.88,12.88,0,0,0-.86-1.45,8.11,8.11,0,0,0-1-1.21,5,5,0,0,0-.86-.71,2.33,2.33,0,0,0-.86-.36,1.84,1.84,0,0,0-.84.05,2.08,2.08,0,0,0-.82.54,4.58,4.58,0,0,0-.65.86,7.72,7.72,0,0,0-.59,1.31,13.9,13.9,0,0,0-.5,1.78,20.88,20.88,0,0,0-.35,2.32,2.44,2.44,0,0,1-.17.76,1.27,1.27,0,0,1-.3.47c-.06.06-.19,0-.42-.15a8,8,0,0,1-.75-.67,3.35,3.35,0,0,1-.82-1.35,5.29,5.29,0,0,1-.22-1.66,8.42,8.42,0,0,1,.24-1.81,11.18,11.18,0,0,1,.6-1.8,11.58,11.58,0,0,1,.85-1.6,7.79,7.79,0,0,1,1-1.25,7.08,7.08,0,0,1,1.67-1.25,4.46,4.46,0,0,1,3.91-.22,6.37,6.37,0,0,1,2.09,1.47,10.19,10.19,0,0,1,1.08,1.31c.4.55.81,1.17,1.25,1.86s.87,1.45,1.33,2.27.92,1.65,1.37,2.51c.7-.8,1.49-1.69,2.38-2.68s1.77-2,2.67-3c-.85-1.59-1.69-3.25-2.54-5s-1.65-3.49-2.4-5.24a3.63,3.63,0,0,1-.33-1.65,2,2,0,0,1,.59-1.34,2.29,2.29,0,0,1,.51-.37,1.51,1.51,0,0,1,.58-.18,1.41,1.41,0,0,1,.6.1,1.76,1.76,0,0,1,.59.4A7.44,7.44,0,0,1,74,154a3.88,3.88,0,0,1,.54.88c.28.62.59,1.28.91,2s.66,1.42,1,2.15.71,1.48,1.08,2.24.75,1.51,1.14,2.24l1.12-1.28.71-.83.21-.24a1.8,1.8,0,0,1,.18-.2,2.58,2.58,0,0,1,.59-.46,1,1,0,0,1,.51-.13.88.88,0,0,1,.44.12,2.28,2.28,0,0,1,.41.33.92.92,0,0,1,.28.48,1,1,0,0,1,0,.49,1.21,1.21,0,0,1-.18.44,2.41,2.41,0,0,1-.25.35l-.39.49c-.07.1-.13.16-.16.2l-.06.09-.07.09-.21.24c-.11.12-.26.3-.46.55s-.47.57-.69.84l-.68.81c.63,1.15,1.26,2.19,1.88,3.11a14.81,14.81,0,0,0,1.79,2.24,2.63,2.63,0,0,0,1.47.85,1.68,1.68,0,0,0,1.45-.61,2.51,2.51,0,0,0,.49-.81,6.59,6.59,0,0,0,.38-1.37,17.64,17.64,0,0,0,.22-2c.05-.76.07-1.63.07-2.62l.44.17.38.17c-.36-.53-.72-1.09-1.08-1.67-.49-.8-1-1.61-1.45-2.42s-.93-1.57-1.34-2.24a1.36,1.36,0,0,1-.18-.79,2.83,2.83,0,0,1,.19-.85,4.21,4.21,0,0,1,.42-.78,3.29,3.29,0,0,1,.5-.62,1.16,1.16,0,0,1,.79-.45.88.88,0,0,1,.61.28,4.27,4.27,0,0,1,.58.8c.23.38.48.81.76,1.3s.56,1,.88,1.58.64,1.12,1,1.67.67,1.06,1,1.55a9.26,9.26,0,0,0,1,1.24,3.12,3.12,0,0,0,.89.67.6.6,0,0,0,.73-.16,2.56,2.56,0,0,0,.6-1.14,10.94,10.94,0,0,0,.31-1.61l0-.07c-.42-.59-.86-1.19-1.3-1.82s-.87-1.26-1.28-1.9-.8-1.24-1.15-1.82-.63-1.1-.87-1.58a6.63,6.63,0,0,1-.47-1.18,1.76,1.76,0,0,1,0-.75,2.3,2.3,0,0,1,.25-.66,3.41,3.41,0,0,1,.43-.59l.51-.55a.93.93,0,0,1,.78-.32,1.11,1.11,0,0,1,.65.31,3.34,3.34,0,0,1,.35.48c.15.22.31.48.47.75s.3.54.44.8l.31.56,1.13,2.36c.34-.48.69-.91,1-1.32s.72-.86,1.1-1.38a18.73,18.73,0,0,0,1.18-1.87,24.21,24.21,0,0,0,1.23-2.74c-.08-.37-.16-.75-.21-1.13a10.92,10.92,0,0,1-.07-2.48,8.14,8.14,0,0,1,.51-2.24,5.12,5.12,0,0,1,1.16-1.8.91.91,0,0,1,.49-.29,1.14,1.14,0,0,1,.45,0l.43.06a.73.73,0,0,0,.39,0,1.27,1.27,0,0,0,.34-.2l.29-.26.24-.25.24-.25A1.68,1.68,0,0,1,104,139a.68.68,0,0,1,.39-.11,1,1,0,0,1,.48.13,2.48,2.48,0,0,1,.59.48,9.46,9.46,0,0,1,1,1.27c.35.49.71,1,1.07,1.54s.73,1.06,1.1,1.58a10.82,10.82,0,0,0,1.16,1.38,4,4,0,0,0,.89.71.55.55,0,0,0,.69-.11,1.64,1.64,0,0,0,.36-.59,4.79,4.79,0,0,0,.21-.81,6.27,6.27,0,0,0,.07-.64l-.47-.55c-.58-.7-1.25-1.53-2-2.5s-1.59-2.08-2.49-3.32c-.59-.83-1.24-1.77-1.94-2.82s-1.38-2.14-2-3.27-1.27-2.27-1.82-3.41a21.46,21.46,0,0,1-1.28-3.24,9.11,9.11,0,0,1-.42-2.77,2.82,2.82,0,0,1,.78-2,3.79,3.79,0,0,1,1.61-1,2.82,2.82,0,0,1,1.55,0,4.52,4.52,0,0,1,1.49.77,15.89,15.89,0,0,1,1.49,1.31,9,9,0,0,1,1.74,2.52,18.2,18.2,0,0,1,1.19,3.21,28.68,28.68,0,0,1,.75,3.53c.19,1.2.33,2.37.44,3.5l.3-.06a15.46,15.46,0,0,1-.11-2.34,2.14,2.14,0,0,1,.54-1.47,3.29,3.29,0,0,1,1.43-.86,3.75,3.75,0,0,1,1.6-.1,4.74,4.74,0,0,1,1.61.55,5.86,5.86,0,0,1,1.46,1.09c.37.37.71.73,1,1.09a9.74,9.74,0,0,1,.81,1.13,8.23,8.23,0,0,1,.63,1.26,9.07,9.07,0,0,1,.44,1.49c.11-.41.23-.82.35-1.24s.23-.84.33-1.29.18-.91.24-1.4.07-.71.08-1.09l-1.17-1.33c-.76-.88-1.53-1.81-2.33-2.8s-1.54-2-2.25-3l-.89-1.28c-.34-.5-.7-1.06-1.06-1.67s-.74-1.25-1.1-1.94a22,22,0,0,1-1-2.1,19.23,19.23,0,0,1-.7-2.15,8.55,8.55,0,0,1-.27-2.08,5.46,5.46,0,0,1,.3-1.91,4.21,4.21,0,0,1,1-1.6,2.86,2.86,0,0,1,1.09-.73,2,2,0,0,1,1.08-.07,2.91,2.91,0,0,1,1.06.47,7,7,0,0,1,1.06.88,13.33,13.33,0,0,1,1.76,2.23,27.64,27.64,0,0,1,1.55,2.73c.47.95.91,1.91,1.3,2.87s.73,1.84,1,2.65.51,1.49.69,2.07.29,1,.34,1.13l.64,3.24.42-.1c-.07-.6-.15-1.25-.24-2s-.16-1.4-.22-2.07-.11-1.26-.14-1.8a5.23,5.23,0,0,1,0-1.17,4.55,4.55,0,0,1,.41-1.23,4.87,4.87,0,0,1,.93-1.26,1.78,1.78,0,0,1,.72-.44,2,2,0,0,1,.89-.08,2.66,2.66,0,0,1,1,.3,3.75,3.75,0,0,1,.94.71,2.81,2.81,0,0,1,.68,1.12,8.53,8.53,0,0,1,.37,1.45q.14.78.21,1.62c.05.56.12,1.11.21,1.63a8.77,8.77,0,0,0,.37,1.47,3.09,3.09,0,0,0,.7,1.13,1,1,0,0,0,.75.37,1.27,1.27,0,0,0,.77-.42,1.44,1.44,0,0,0,.32-.63,4,4,0,0,0,.14-.91,9.55,9.55,0,0,0,0-1.08c0-.39,0-.76-.06-1.14s-.07-.73-.1-1.07a.41.41,0,0,1,0-.11c-.73-1-1.54-2.14-2.45-3.43l-.36-.52c-.14-.23-.29-.48-.44-.77s-.28-.6-.41-.92a4.47,4.47,0,0,1-.25-1,2.63,2.63,0,0,1,0-.93,1.79,1.79,0,0,1,.44-.81,3.16,3.16,0,0,1,1-.69.53.53,0,0,1,.56.06c.32.45.67,1,1.07,1.5l1.19,1.66,1.17,1.63,1,1.41c.3.42.54.75.73,1s.28.38.28.39a2.53,2.53,0,0,0,.42.33,1.42,1.42,0,0,0,.43.21.91.91,0,0,0,.43,0,.63.63,0,0,0,.37-.19,1.52,1.52,0,0,0,.36-.62,2.23,2.23,0,0,0,.12-.83,3.64,3.64,0,0,0-.18-1,4.39,4.39,0,0,0-.52-1l-4.45-6.61a1,1,0,0,1,0-.88,2.89,2.89,0,0,1,.69-1.06,2.33,2.33,0,0,1,1.08-.68.82.82,0,0,1,.83.17,10.57,10.57,0,0,1,.74.87c.29.38.6.8.94,1.28l1,1.47,1,1.42c.3.44.57.82.8,1.14a6.1,6.1,0,0,0,.52.65c.2.2.39.39.57.55a3,3,0,0,0,.51.38,1,1,0,0,0,.47.13.71.71,0,0,0,.43-.23,2.73,2.73,0,0,0,.47-.7,8.46,8.46,0,0,0,.4-1.06c.13-.39.24-.8.34-1.24s.17-.88.23-1.31.08-.84.1-1.23a7.79,7.79,0,0,0,0-1l.65.65.57.56c.18.17.36.36.56.54S146.41,110.19,146.64,110.43ZM101.91,161a9.28,9.28,0,0,0-.77-.66c-.29-.24-.61-.47-.94-.71s-.67-.46-1-.69l-1-.65c-.8-.48-1.64-1-2.51-1.44.94,1.31,1.91,2.61,2.93,3.89a44.74,44.74,0,0,0,3.36,3.75,7.26,7.26,0,0,0,1.07.92,4.1,4.1,0,0,0,.83.45,1.46,1.46,0,0,0,.58.12.44.44,0,0,0,.3-.1.9.9,0,0,0,.18-1,4.46,4.46,0,0,0-.65-1.29,14.46,14.46,0,0,0-1.12-1.38C102.68,161.75,102.28,161.33,101.91,161Zm1.29-18.72a2.61,2.61,0,0,0-.65,1.09,4.54,4.54,0,0,0-.19,1.41,7.19,7.19,0,0,0,.18,1.56,9.49,9.49,0,0,0,.48,1.57,9.72,9.72,0,0,0,.73,1.44,6.38,6.38,0,0,0,.9,1.15,5.27,5.27,0,0,0,.57.49,2,2,0,0,0,.59.32,1.35,1.35,0,0,0,.59.07,1,1,0,0,0,.54-.29,1.41,1.41,0,0,0,.38-1.08,4.93,4.93,0,0,0-.27-1.41,9.23,9.23,0,0,0-.63-1.4,9.5,9.5,0,0,0-.68-1.06Zm5.34-8.11c-.18-.57-.35-1.18-.52-1.83s-.34-1.32-.53-2-.4-1.38-.63-2.07a21.21,21.21,0,0,0-.77-2.06,16.2,16.2,0,0,0-1-2,11.72,11.72,0,0,0-1.28-1.77l-.2-.17a1.63,1.63,0,0,0-.37-.21,1.14,1.14,0,0,0-.44-.11.5.5,0,0,0-.41.18.86.86,0,0,0-.15.76,5.8,5.8,0,0,0,.38,1.3c.2.51.46,1.06.77,1.67s.66,1.23,1,1.87.75,1.29,1.15,1.93.79,1.25,1.16,1.81.72,1.08,1,1.54S108.34,133.85,108.54,134.13Zm7-.7a2.74,2.74,0,0,0-.58-.45,1.4,1.4,0,0,0-.64-.22,1.7,1.7,0,0,0-.74.14,2.65,2.65,0,0,0-.82.59,2.82,2.82,0,0,0-.6.92,3.09,3.09,0,0,0-.22,1.2,4.54,4.54,0,0,0,.27,1.42,6.2,6.2,0,0,0,.88,1.62c.33.46.63.87.92,1.25s.54.7.77,1l.74.9q.47-.25.9-.54c.26-.16.52-.34.79-.54a6.4,6.4,0,0,0,.72-.61,1.62,1.62,0,0,0,.45-.89,3.09,3.09,0,0,0,0-1.13,6.81,6.81,0,0,0-.42-1.25,11.07,11.07,0,0,0-.69-1.26c-.27-.41-.55-.8-.84-1.16A12.5,12.5,0,0,0,115.51,133.43Zm4.92-9.74-1.11-2.23c-.36-.73-.7-1.43-1-2.08l-.84-1.65c-.11-.21-.24-.49-.38-.82s-.3-.7-.47-1.08-.34-.78-.53-1.19l-.56-1.16c-.19-.36-.37-.7-.55-1a4.08,4.08,0,0,0-.53-.7q-.34-.35-.57-.12a1.25,1.25,0,0,0-.39.82,3.26,3.26,0,0,0,.15,1.09,11.1,11.1,0,0,0,.54,1.43l.77,1.79c.3.53.62,1.07,1,1.61s.7,1.07,1,1.59.73,1,1.09,1.51.72.95,1.06,1.37c.78,1,1.57,2,2.37,2.9Z"/><path d="M232.22,110.43a7.58,7.58,0,0,1-.08,1.1,12.13,12.13,0,0,1-.24,1.33,14.09,14.09,0,0,1-.39,1.44c-.16.49-.34,1-.53,1.42a11.72,11.72,0,0,1-.67,1.27,5.18,5.18,0,0,1-.78,1,1.94,1.94,0,0,1-.87.54,2.06,2.06,0,0,1-1,0,4,4,0,0,1-1.07-.34,10.15,10.15,0,0,1-1.16-.66,12,12,0,0,1,.11,1.77,9.45,9.45,0,0,1-.14,1.64,6.1,6.1,0,0,1-.42,1.41,3.52,3.52,0,0,1-.72,1.08,2.62,2.62,0,0,1-.79.55,1.93,1.93,0,0,1-1,.16,2.83,2.83,0,0,1-1.1-.34,8.67,8.67,0,0,1-.34,1.47,9,9,0,0,1-.77,1.74,6.77,6.77,0,0,1-1.07,1.42,5.23,5.23,0,0,1-1.47,1.09,2.88,2.88,0,0,1-1.29.27,2.35,2.35,0,0,1-1.1-.33,4.17,4.17,0,0,1-.92-.72,5.45,5.45,0,0,1-.56-.67,6.66,6.66,0,0,1-.59-1,11.75,11.75,0,0,1-.54-1.48,13.17,13.17,0,0,1-.38-2v-.71a5.39,5.39,0,0,0,0-.57,1.73,1.73,0,0,0,0-.42.52.52,0,0,0-.16-.29,1,1,0,0,0-.45-.29.37.37,0,0,0-.38.09,1.25,1.25,0,0,0-.24.72,4.55,4.55,0,0,0,.2,1.48l2.42,8.82a2.4,2.4,0,0,1,.08,1.13,1.54,1.54,0,0,1-.44.78,1.77,1.77,0,0,1-.94.54,1.79,1.79,0,0,1-1-.13,3.8,3.8,0,0,1-1-.62c-.32-.27-.66-.58-1-.92l-.15-.15a14.46,14.46,0,0,1-.51,1.91,16.29,16.29,0,0,1-.79,1.83c-.31.6-.66,1.21-1.06,1.83a3.46,3.46,0,0,1-.13.88c-.09.34-.19.66-.3,1s-.27.73-.44,1.11l-.27.28a9.9,9.9,0,0,1-2.09,1.58,20.15,20.15,0,0,1-2.22,1.07q-.51.21-1,.39c0,.13,0,.27,0,.41a8.16,8.16,0,0,1-.4,1.84,3.86,3.86,0,0,1-.91,1.49,2.34,2.34,0,0,1-1.66.74,5.28,5.28,0,0,1-2.17-.52,7.7,7.7,0,0,1,0,1.26,8.72,8.72,0,0,1-.26,1.41,8,8,0,0,1-.53,1.36,4.57,4.57,0,0,1-.81,1.15,3.82,3.82,0,0,1-2.72,1.07,4.16,4.16,0,0,1-1.58-.36,4.82,4.82,0,0,1-1.52-1.06,9.13,9.13,0,0,1-1.43-1.88c-.06.12-.12.25-.18.36a15.09,15.09,0,0,1-1,1.63,13.45,13.45,0,0,1-1.2,1.47q1,.44,1.95,1c.55.31,1.15.68,1.78,1.12a13,13,0,0,1,1.76,1.46l.63.69c.32.36.69.81,1.08,1.34a16,16,0,0,1,1.15,1.8,8.8,8.8,0,0,1,.82,2,5,5,0,0,1,.1,2,3.31,3.31,0,0,1-1,1.85,2.75,2.75,0,0,1-1.74.85,4.48,4.48,0,0,1-2.16-.43,12.38,12.38,0,0,1-2.56-1.6,36.37,36.37,0,0,1-3-2.65c-.11-.12-.3-.34-.56-.67l-.24-.29-.06.22a14,14,0,0,1-.81,1.95,6,6,0,0,1-1.11,1.56,3.36,3.36,0,0,1-1.11.8,2.24,2.24,0,0,1-1.06.18,2.34,2.34,0,0,1-1-.35,5.23,5.23,0,0,1-.79-.59c0,.52-.06,1-.12,1.52a17.92,17.92,0,0,1-.5,2.69,12,12,0,0,1-.83,2.16,6.39,6.39,0,0,1-1.09,1.53,4.46,4.46,0,0,1-1.53,1,4.09,4.09,0,0,1-1.77.27,5.07,5.07,0,0,1-1.88-.52,7,7,0,0,1-1.88-1.38,8.36,8.36,0,0,1-.73-.86c-.28-.36-.58-.79-.9-1.28s-.67-1-1-1.64-.74-1.24-1.13-1.92c-.87,1.07-1.71,2.1-2.52,3.08s-1.61,1.95-2.42,2.92c.41.81.81,1.61,1.19,2.39s.74,1.53,1.07,2.23.62,1.33.89,1.91l.69,1.49a7.66,7.66,0,0,1,.59,2.67,2,2,0,0,1-.43,1.39,2.15,2.15,0,0,1-.6.42,1.94,1.94,0,0,1-.7.2,1.87,1.87,0,0,1-.7-.08,1.54,1.54,0,0,1-.62-.4,1.79,1.79,0,0,1-.3-.38c-.8-1.42-1.54-2.82-2.22-4.22s-1.32-2.76-1.93-4.11a9.21,9.21,0,0,1-1.24,1,5.21,5.21,0,0,1-1.34.7,3.77,3.77,0,0,1-1.47.2,4.33,4.33,0,0,1-1.62-.42l-.42-.28a2.88,2.88,0,0,1-.34-.27c-.31-.32-.36-.6-.14-.82a1,1,0,0,1,.68-.24,9.46,9.46,0,0,1,1.36.08l1-1.06,1.09-1.11,1.05-1c-.42-.93-.82-1.84-1.21-2.7s-.79-1.7-1.19-2.5a12.88,12.88,0,0,0-.86-1.45,8.11,8.11,0,0,0-1-1.21,5.38,5.38,0,0,0-.86-.71,2.33,2.33,0,0,0-.86-.36,1.83,1.83,0,0,0-.84.05,2.08,2.08,0,0,0-.82.54,4.58,4.58,0,0,0-.65.86,8.56,8.56,0,0,0-.6,1.31,14,14,0,0,0-.49,1.78,20.88,20.88,0,0,0-.35,2.32,2.77,2.77,0,0,1-.17.76,1.27,1.27,0,0,1-.3.47q-.09.09-.42-.15a9.37,9.37,0,0,1-.76-.67,3.44,3.44,0,0,1-.81-1.35,5.29,5.29,0,0,1-.23-1.66,9.14,9.14,0,0,1,.25-1.81,11.18,11.18,0,0,1,.6-1.8,11.58,11.58,0,0,1,.85-1.6,7.79,7.79,0,0,1,1-1.25,6.88,6.88,0,0,1,1.67-1.25,4.46,4.46,0,0,1,3.91-.22,6.37,6.37,0,0,1,2.09,1.47,10.19,10.19,0,0,1,1.08,1.31c.4.55.81,1.17,1.24,1.86s.88,1.45,1.34,2.27.91,1.65,1.37,2.51c.7-.8,1.49-1.69,2.38-2.68l2.66-3q-1.26-2.39-2.53-5t-2.4-5.24a3.63,3.63,0,0,1-.33-1.65,2,2,0,0,1,.59-1.34,2.08,2.08,0,0,1,.51-.37,1.51,1.51,0,0,1,.58-.18,1.41,1.41,0,0,1,.6.1,1.76,1.76,0,0,1,.59.4,7.44,7.44,0,0,1,.55.62,3.88,3.88,0,0,1,.54.88c.28.62.58,1.28.91,2s.66,1.42,1,2.15.71,1.48,1.09,2.24.75,1.51,1.14,2.24c.43-.49.8-.91,1.11-1.28l.72-.83.2-.24.19-.2a2.38,2.38,0,0,1,.59-.46,1,1,0,0,1,.5-.13.89.89,0,0,1,.45.12,2.28,2.28,0,0,1,.41.33.92.92,0,0,1,.28.48,1,1,0,0,1,0,.49,1.21,1.21,0,0,1-.18.44,3.53,3.53,0,0,1-.25.35l-.39.49-.16.2s-.06.07-.06.09l-.07.09a3.06,3.06,0,0,1-.22.24l-.45.55-.7.84c-.22.28-.45.55-.68.81.64,1.15,1.27,2.19,1.89,3.11a14.82,14.82,0,0,0,1.78,2.24,2.69,2.69,0,0,0,1.47.85,1.67,1.67,0,0,0,1.45-.61,2.35,2.35,0,0,0,.5-.81,7.27,7.27,0,0,0,.38-1.37,17.64,17.64,0,0,0,.22-2c0-.76.07-1.63.07-2.62l.43.17.39.17c-.36-.53-.72-1.09-1.08-1.67-.49-.8-1-1.61-1.46-2.42s-.92-1.57-1.33-2.24a1.36,1.36,0,0,1-.18-.79,2.83,2.83,0,0,1,.19-.85,4.84,4.84,0,0,1,.41-.78,3.75,3.75,0,0,1,.51-.62,1.15,1.15,0,0,1,.78-.45.89.89,0,0,1,.62.28,4.78,4.78,0,0,1,.58.8c.23.38.48.81.75,1.3l.89,1.58c.31.56.64,1.12,1,1.67s.66,1.06,1,1.55a8,8,0,0,0,1,1.24,3,3,0,0,0,.89.67.6.6,0,0,0,.73-.16A2.56,2.56,0,0,0,180,163a10.94,10.94,0,0,0,.31-1.61l-.05-.07c-.43-.59-.86-1.19-1.3-1.82s-.87-1.26-1.29-1.9-.79-1.24-1.14-1.82-.63-1.1-.87-1.58a5.94,5.94,0,0,1-.47-1.18,1.76,1.76,0,0,1,0-.75,2.3,2.3,0,0,1,.25-.66,3.41,3.41,0,0,1,.43-.59l.51-.55a.91.91,0,0,1,.78-.32,1.14,1.14,0,0,1,.65.31,4.37,4.37,0,0,1,.35.48c.15.22.3.48.46.75s.31.54.45.8l.31.56,1.13,2.36c.34-.48.69-.91,1-1.32s.72-.86,1.1-1.38a18.73,18.73,0,0,0,1.18-1.87,24.21,24.21,0,0,0,1.23-2.74c-.08-.37-.16-.75-.21-1.13a10.92,10.92,0,0,1-.07-2.48,8.14,8.14,0,0,1,.51-2.24,5,5,0,0,1,1.16-1.8.91.91,0,0,1,.49-.29,1.14,1.14,0,0,1,.45,0l.43.06a.73.73,0,0,0,.39,0,1.45,1.45,0,0,0,.34-.2l.29-.26.24-.25.24-.25a1.68,1.68,0,0,1,.34-.27.68.68,0,0,1,.39-.11,1.05,1.05,0,0,1,.48.13,2.69,2.69,0,0,1,.59.48,9.46,9.46,0,0,1,1,1.27c.35.49.71,1,1.07,1.54s.72,1.06,1.1,1.58a10.82,10.82,0,0,0,1.16,1.38,4,4,0,0,0,.89.71.55.55,0,0,0,.69-.11,1.64,1.64,0,0,0,.36-.59,4.79,4.79,0,0,0,.21-.81c0-.2,0-.42.07-.64l-.47-.55c-.58-.7-1.25-1.53-2-2.5s-1.59-2.08-2.49-3.32c-.59-.83-1.24-1.77-1.94-2.82s-1.38-2.14-2-3.27-1.26-2.27-1.81-3.41a20.46,20.46,0,0,1-1.28-3.24,8.81,8.81,0,0,1-.42-2.77,2.82,2.82,0,0,1,.78-2,3.79,3.79,0,0,1,1.61-1,2.78,2.78,0,0,1,1.54,0,4.47,4.47,0,0,1,1.5.77,14.64,14.64,0,0,1,1.48,1.31,9,9,0,0,1,1.75,2.52,19,19,0,0,1,1.19,3.21,28.68,28.68,0,0,1,.75,3.53c.19,1.2.33,2.37.44,3.5l.3-.06a14.25,14.25,0,0,1-.11-2.34,2.14,2.14,0,0,1,.54-1.47,3.29,3.29,0,0,1,1.43-.86,3.75,3.75,0,0,1,1.6-.1,4.81,4.81,0,0,1,1.61.55,5.86,5.86,0,0,1,1.46,1.09c.37.37.71.73,1,1.09a9.74,9.74,0,0,1,.81,1.13,8.23,8.23,0,0,1,.63,1.26,9.07,9.07,0,0,1,.44,1.49c.11-.41.22-.82.35-1.24s.23-.84.33-1.29.18-.91.24-1.4.07-.71.08-1.09l-1.17-1.33c-.76-.88-1.54-1.81-2.33-2.8s-1.55-2-2.25-3l-.89-1.28c-.34-.5-.7-1.06-1.07-1.67s-.73-1.25-1.09-1.94a22,22,0,0,1-1-2.1,17.37,17.37,0,0,1-.7-2.15,9.1,9.1,0,0,1-.28-2.08,6,6,0,0,1,.3-1.91,4.36,4.36,0,0,1,1-1.6,2.86,2.86,0,0,1,1.09-.73,2,2,0,0,1,1.08-.07,2.91,2.91,0,0,1,1.06.47,7,7,0,0,1,1.06.88,13.33,13.33,0,0,1,1.76,2.23,29.81,29.81,0,0,1,1.55,2.73c.47.95.91,1.91,1.3,2.87s.73,1.84,1,2.65.51,1.49.69,2.07.28,1,.33,1.13l.65,3.24.42-.1c-.07-.6-.15-1.25-.24-2s-.16-1.4-.22-2.07-.11-1.26-.14-1.8a5.38,5.38,0,0,1,0-1.17,5,5,0,0,1,.42-1.23,4.83,4.83,0,0,1,.92-1.26,1.88,1.88,0,0,1,.73-.44,2,2,0,0,1,.89-.08,2.56,2.56,0,0,1,.95.3,3.62,3.62,0,0,1,1,.71,2.81,2.81,0,0,1,.68,1.12,8.53,8.53,0,0,1,.37,1.45c.08.52.15,1.06.2,1.62s.13,1.11.22,1.63a8.77,8.77,0,0,0,.37,1.47,3.09,3.09,0,0,0,.7,1.13,1,1,0,0,0,.75.37,1.22,1.22,0,0,0,.76-.42,1.35,1.35,0,0,0,.33-.63,4.58,4.58,0,0,0,.14-.91c0-.34,0-.7,0-1.08s0-.76-.07-1.14-.06-.73-.09-1.07a.41.41,0,0,1,0-.11c-.73-1-1.54-2.14-2.45-3.43a5.47,5.47,0,0,1-.36-.52,8.8,8.8,0,0,1-.44-.77,8.54,8.54,0,0,1-.41-.92,4.47,4.47,0,0,1-.25-1,2.63,2.63,0,0,1,0-.93,1.7,1.7,0,0,1,.44-.81,3.27,3.27,0,0,1,1-.69.53.53,0,0,1,.56.06l1.08,1.5,1.19,1.66,1.17,1.63,1,1.41.72,1c.19.25.29.38.29.39a2.18,2.18,0,0,0,.42.33,1.42,1.42,0,0,0,.43.21.91.91,0,0,0,.43,0,.63.63,0,0,0,.37-.19,1.52,1.52,0,0,0,.36-.62,2.45,2.45,0,0,0,.12-.83,3.64,3.64,0,0,0-.18-1,4.81,4.81,0,0,0-.52-1l-4.46-6.61a1,1,0,0,1,0-.88,3.06,3.06,0,0,1,.7-1.06,2.33,2.33,0,0,1,1.08-.68.82.82,0,0,1,.83.17,10.81,10.81,0,0,1,.73.87c.3.38.61.8.95,1.28l1,1.47,1,1.42c.31.44.57.82.81,1.14a6.1,6.1,0,0,0,.52.65c.2.2.39.39.57.55a3,3,0,0,0,.51.38,1,1,0,0,0,.47.13.71.71,0,0,0,.43-.23,2.49,2.49,0,0,0,.46-.7,7.12,7.12,0,0,0,.41-1.06,10.66,10.66,0,0,0,.33-1.24,12.42,12.42,0,0,0,.23-1.31c.06-.43.09-.84.11-1.23a6.22,6.22,0,0,0,0-1l.66.65.57.56c.18.17.36.36.56.54S232,110.19,232.22,110.43ZM187.48,161a7.67,7.67,0,0,0-.76-.66c-.3-.24-.61-.47-.94-.71s-.67-.46-1-.69l-1.05-.65c-.79-.48-1.63-1-2.5-1.44.94,1.31,1.91,2.61,2.93,3.89a44.59,44.59,0,0,0,3.35,3.75,7.83,7.83,0,0,0,1.08.92,4.1,4.1,0,0,0,.83.45,1.46,1.46,0,0,0,.58.12.46.46,0,0,0,.3-.1.9.9,0,0,0,.18-1,4.73,4.73,0,0,0-.65-1.29,14.46,14.46,0,0,0-1.12-1.38C188.25,161.75,187.85,161.33,187.48,161Zm1.3-18.72a2.61,2.61,0,0,0-.65,1.09,4.54,4.54,0,0,0-.19,1.41,7.19,7.19,0,0,0,.18,1.56,8.63,8.63,0,0,0,.48,1.57,9.72,9.72,0,0,0,.73,1.44,6.38,6.38,0,0,0,.9,1.15,5.27,5.27,0,0,0,.57.49,2,2,0,0,0,.59.32,1.35,1.35,0,0,0,.59.07,1,1,0,0,0,.54-.29,1.41,1.41,0,0,0,.38-1.08,5.3,5.3,0,0,0-.27-1.41,9.23,9.23,0,0,0-.63-1.4,9.5,9.5,0,0,0-.68-1.06Zm5.34-8.11c-.18-.57-.36-1.18-.52-1.83s-.34-1.32-.53-2-.4-1.38-.63-2.07a21.21,21.21,0,0,0-.77-2.06,16.2,16.2,0,0,0-1-2,11.72,11.72,0,0,0-1.28-1.77l-.2-.17a1.88,1.88,0,0,0-.37-.21,1.14,1.14,0,0,0-.44-.11.53.53,0,0,0-.42.18.9.9,0,0,0-.14.76,5.8,5.8,0,0,0,.38,1.3c.2.51.46,1.06.77,1.67s.66,1.23,1,1.87.75,1.29,1.15,1.93.79,1.25,1.16,1.81.71,1.08,1,1.54S193.92,133.85,194.12,134.13Zm7-.7a2.74,2.74,0,0,0-.58-.45,1.4,1.4,0,0,0-.65-.22,1.68,1.68,0,0,0-.73.14,2.65,2.65,0,0,0-.82.59,2.82,2.82,0,0,0-.6.92,3.09,3.09,0,0,0-.22,1.2,4.27,4.27,0,0,0,.27,1.42,6.2,6.2,0,0,0,.88,1.62c.33.46.63.87.92,1.25s.54.7.77,1l.74.9q.47-.25.9-.54c.26-.16.52-.34.79-.54a7.43,7.43,0,0,0,.72-.61,1.69,1.69,0,0,0,.45-.89,2.9,2.9,0,0,0,0-1.13,6.07,6.07,0,0,0-.41-1.25,9.78,9.78,0,0,0-.7-1.26,11.09,11.09,0,0,0-.84-1.16A10.7,10.7,0,0,0,201.09,133.43Zm4.92-9.74c-.38-.75-.74-1.49-1.11-2.23l-1-2.08-.84-1.65c-.11-.21-.24-.49-.38-.82s-.3-.7-.47-1.08l-.53-1.19c-.19-.4-.38-.79-.57-1.16a10,10,0,0,0-.55-1,3.63,3.63,0,0,0-.52-.7c-.23-.23-.42-.27-.58-.12a1.23,1.23,0,0,0-.38.82,3.26,3.26,0,0,0,.15,1.09,12.56,12.56,0,0,0,.53,1.43c.24.53.5,1.13.78,1.79s.62,1.07,1,1.61.69,1.07,1.05,1.59.73,1,1.09,1.51.72.95,1,1.37c.79,1,1.58,2,2.38,2.9Z"/><path d="M331.75,12.73a7.72,7.72,0,0,1-.09,1.1,12.13,12.13,0,0,1-.24,1.33A14.09,14.09,0,0,1,331,16.6,13.37,13.37,0,0,1,330.5,18a10.19,10.19,0,0,1-.67,1.27,5.57,5.57,0,0,1-.77,1,2,2,0,0,1-.88.54,2.06,2.06,0,0,1-1,.05,3.94,3.94,0,0,1-1.06-.34,10.23,10.23,0,0,1-1.17-.66,13.61,13.61,0,0,1,.12,1.77A10.55,10.55,0,0,1,325,23.3a7.26,7.26,0,0,1-.42,1.41,3.52,3.52,0,0,1-.72,1.08,2.66,2.66,0,0,1-.8.55,1.91,1.91,0,0,1-1,.16,2.78,2.78,0,0,1-1.1-.34,9.79,9.79,0,0,1-.35,1.47,9,9,0,0,1-.76,1.74,7.17,7.17,0,0,1-1.08,1.42,5.23,5.23,0,0,1-1.47,1.09,2.81,2.81,0,0,1-1.28.27,2.32,2.32,0,0,1-1.1-.33,4,4,0,0,1-.93-.72,4.7,4.7,0,0,1-.55-.67,6,6,0,0,1-.6-1.05,10.43,10.43,0,0,1-.53-1.48,13.09,13.09,0,0,1-.39-2c0-.26,0-.5,0-.71v-.57a2.42,2.42,0,0,0-.05-.42.61.61,0,0,0-.17-.29,1,1,0,0,0-.45-.29.35.35,0,0,0-.37.09,1.12,1.12,0,0,0-.24.72,4.49,4.49,0,0,0,.19,1.48l2.42,8.82a2.53,2.53,0,0,1,.09,1.12,1.62,1.62,0,0,1-.45.79,1.73,1.73,0,0,1-.94.54,1.79,1.79,0,0,1-1-.13,3.76,3.76,0,0,1-1-.62c-.33-.27-.66-.58-1-.92a1.06,1.06,0,0,0-.15-.15,11.92,11.92,0,0,1-.51,1.91,14.64,14.64,0,0,1-.79,1.83c-.31.59-.66,1.21-1.05,1.83a3.53,3.53,0,0,1-.14.88c-.09.34-.19.66-.3,1s-.27.73-.43,1.11l-.28.28a9.65,9.65,0,0,1-2.09,1.58,18.56,18.56,0,0,1-2.22,1.07q-.51.21-1,.39c0,.13,0,.27,0,.41a8.16,8.16,0,0,1-.4,1.84,3.73,3.73,0,0,1-.9,1.49,2.35,2.35,0,0,1-1.66.74,5.32,5.32,0,0,1-2.18-.52,8.1,8.1,0,0,1-.28,2.67,8,8,0,0,1-.52,1.36,4.36,4.36,0,0,1-.82,1.15,3.78,3.78,0,0,1-2.72,1.07,4.2,4.2,0,0,1-1.58-.36A4.93,4.93,0,0,1,287.43,56,9.49,9.49,0,0,1,286,54.14l-.18.36a16.92,16.92,0,0,1-1,1.63,13.52,13.52,0,0,1-1.21,1.47q1,.43,1.95,1c.56.31,1.15.68,1.79,1.12a12.9,12.9,0,0,1,1.75,1.46l.63.69a16.39,16.39,0,0,1,1.08,1.34A16,16,0,0,1,292,65a8.38,8.38,0,0,1,.82,2,4.87,4.87,0,0,1,.1,2,3.29,3.29,0,0,1-1,1.85,2.77,2.77,0,0,1-1.75.85,4.48,4.48,0,0,1-2.16-.43,12.38,12.38,0,0,1-2.56-1.6,33.34,33.34,0,0,1-2.94-2.66,6.38,6.38,0,0,1-.57-.66l-.23-.29-.07.22a12.9,12.9,0,0,1-.81,2,6,6,0,0,1-1.1,1.56,3.58,3.58,0,0,1-1.11.8,2.28,2.28,0,0,1-1.07.18,2.38,2.38,0,0,1-1-.35,5.78,5.78,0,0,1-.79-.59c0,.52-.06,1-.11,1.51a19.1,19.1,0,0,1-.51,2.7,11.31,11.31,0,0,1-.83,2.16,6.39,6.39,0,0,1-1.09,1.53,4.46,4.46,0,0,1-1.53,1,4,4,0,0,1-1.76.27,5.06,5.06,0,0,1-1.89-.52,7,7,0,0,1-1.88-1.38,8.36,8.36,0,0,1-.73-.86c-.27-.36-.57-.79-.9-1.28s-.66-1-1-1.64-.74-1.24-1.13-1.92l-2.51,3.08-2.42,2.92c.4.81.8,1.61,1.18,2.39s.75,1.53,1.07,2.23.63,1.33.9,1.91.49,1.08.68,1.49a7.72,7.72,0,0,1,.6,2.67,2.07,2.07,0,0,1-.43,1.39,2.49,2.49,0,0,1-.6.42,2,2,0,0,1-.7.2,1.82,1.82,0,0,1-.7-.08,1.64,1.64,0,0,1-.63-.4,1.74,1.74,0,0,1-.29-.38c-.81-1.42-1.55-2.82-2.23-4.22s-1.31-2.76-1.92-4.11a9.28,9.28,0,0,1-1.25,1,4.91,4.91,0,0,1-1.34.7,3.75,3.75,0,0,1-1.46.2,4.37,4.37,0,0,1-1.63-.42l-.42-.28a2.16,2.16,0,0,1-.33-.27c-.32-.32-.37-.6-.14-.82a1,1,0,0,1,.68-.24,9.33,9.33,0,0,1,1.35.08l1-1.06,1.09-1.11,1-1c-.41-.93-.82-1.84-1.21-2.7s-.79-1.7-1.19-2.5a11.54,11.54,0,0,0-.86-1.45,8.11,8.11,0,0,0-1-1.21,5,5,0,0,0-.86-.71,2.33,2.33,0,0,0-.86-.36,1.84,1.84,0,0,0-.84,0,2.15,2.15,0,0,0-.82.54,4.57,4.57,0,0,0-.64.86,7,7,0,0,0-.6,1.31,13.9,13.9,0,0,0-.5,1.78c-.14.68-.26,1.45-.35,2.32a2.44,2.44,0,0,1-.17.76,1.27,1.27,0,0,1-.3.47c0,.06-.19,0-.41-.15a6.88,6.88,0,0,1-.76-.67,3.22,3.22,0,0,1-.81-1.35,5,5,0,0,1-.23-1.66,8.42,8.42,0,0,1,.24-1.81,13.57,13.57,0,0,1,.6-1.8,11.58,11.58,0,0,1,.85-1.6,7.79,7.79,0,0,1,1-1.25,7.08,7.08,0,0,1,1.67-1.25,4.48,4.48,0,0,1,3.92-.22,6.44,6.44,0,0,1,2.08,1.47A11.06,11.06,0,0,1,251.93,68c.39.55.81,1.17,1.24,1.86s.87,1.45,1.33,2.26.92,1.66,1.37,2.52c.7-.8,1.49-1.69,2.38-2.68l2.67-3q-1.26-2.38-2.54-5T256,58.73a3.92,3.92,0,0,1-.33-1.65,2,2,0,0,1,.6-1.34,2.23,2.23,0,0,1,.5-.37,1.56,1.56,0,0,1,.58-.18,1.41,1.41,0,0,1,.6.1,1.67,1.67,0,0,1,.59.4,7.44,7.44,0,0,1,.55.62,3.88,3.88,0,0,1,.54.88c.28.62.59,1.28.91,2s.66,1.42,1,2.15.71,1.48,1.08,2.24.76,1.51,1.14,2.24l1.12-1.28.71-.83a2.57,2.57,0,0,1,.21-.24,1.8,1.8,0,0,1,.18-.2,2.4,2.4,0,0,1,.6-.46,1,1,0,0,1,.5-.13.88.88,0,0,1,.44.12,2,2,0,0,1,.41.33,1,1,0,0,1,.29.48,1.35,1.35,0,0,1,0,.49,1.7,1.7,0,0,1-.18.44,3.54,3.54,0,0,1-.26.35l-.39.49c-.07.1-.13.16-.16.2l-.06.09-.07.09-.21.24c-.1.12-.26.3-.46.55l-.69.84-.68.81c.64,1.15,1.27,2.19,1.89,3.11a14.22,14.22,0,0,0,1.78,2.24,2.63,2.63,0,0,0,1.47.85,1.67,1.67,0,0,0,1.45-.61,2.51,2.51,0,0,0,.49-.81,6.59,6.59,0,0,0,.38-1.37,17.64,17.64,0,0,0,.22-2c0-.76.07-1.63.07-2.62l.44.17.38.17c-.36-.53-.71-1.09-1.07-1.67-.5-.8-1-1.61-1.46-2.42s-.92-1.57-1.34-2.24a1.44,1.44,0,0,1-.18-.79,2.83,2.83,0,0,1,.19-.85,4.21,4.21,0,0,1,.42-.78,3.29,3.29,0,0,1,.5-.62,1.16,1.16,0,0,1,.79-.45.87.87,0,0,1,.61.28,4.71,4.71,0,0,1,.59.8c.23.38.48.81.75,1.3s.56,1,.88,1.58.64,1.12,1,1.67.67,1.06,1,1.55a9.26,9.26,0,0,0,1,1.24,3.12,3.12,0,0,0,.89.67.6.6,0,0,0,.73-.16,2.37,2.37,0,0,0,.6-1.14,10.94,10.94,0,0,0,.31-1.61l0-.07c-.43-.59-.87-1.19-1.31-1.82s-.86-1.26-1.28-1.9-.8-1.24-1.15-1.82-.63-1.1-.87-1.58a6.63,6.63,0,0,1-.47-1.18,1.61,1.61,0,0,1,0-.75,2,2,0,0,1,.24-.66,3.41,3.41,0,0,1,.43-.59l.51-.55a.93.93,0,0,1,.78-.32,1.11,1.11,0,0,1,.65.31,2.71,2.71,0,0,1,.35.48c.15.22.31.48.47.75s.31.54.44.8l.31.56L280,57.73c.34-.48.69-.91,1-1.32s.72-.86,1.1-1.38a17.08,17.08,0,0,0,1.18-1.87,21.11,21.11,0,0,0,1.23-2.74c-.08-.37-.15-.75-.21-1.13a10.92,10.92,0,0,1-.07-2.48,8.93,8.93,0,0,1,.51-2.24,5.12,5.12,0,0,1,1.16-1.8,1,1,0,0,1,.49-.29,1.19,1.19,0,0,1,.46,0l.42.06a.73.73,0,0,0,.39,0,1.27,1.27,0,0,0,.34-.2l.3-.26.24-.25.24-.25a1.63,1.63,0,0,1,.33-.27.68.68,0,0,1,.39-.11,1,1,0,0,1,.48.13,2.48,2.48,0,0,1,.59.48,9.46,9.46,0,0,1,1,1.27c.36.49.71,1,1.07,1.54s.73,1.06,1.1,1.58A11.71,11.71,0,0,0,295,47.53a4,4,0,0,0,.89.71.55.55,0,0,0,.69-.11,1.65,1.65,0,0,0,.37-.59,4,4,0,0,0,.2-.81,4.32,4.32,0,0,0,.07-.64c-.15-.18-.31-.36-.46-.55-.59-.7-1.26-1.53-2-2.5s-1.59-2.08-2.48-3.32q-.9-1.24-2-2.82c-.7-1-1.38-2.14-2-3.27s-1.27-2.27-1.82-3.41A21.46,21.46,0,0,1,285.14,27a8.77,8.77,0,0,1-.41-2.77,2.77,2.77,0,0,1,.77-2,3.82,3.82,0,0,1,1.62-1,2.78,2.78,0,0,1,1.54,0,4.66,4.66,0,0,1,1.5.77,17.19,17.19,0,0,1,1.48,1.31,9.19,9.19,0,0,1,1.75,2.52A19,19,0,0,1,294.57,29a28.68,28.68,0,0,1,.75,3.53c.19,1.2.34,2.37.45,3.5l.29-.06a15.46,15.46,0,0,1-.11-2.34,2.1,2.1,0,0,1,.55-1.47,3.21,3.21,0,0,1,1.42-.86,3.76,3.76,0,0,1,1.6-.1,4.79,4.79,0,0,1,1.62.55,6,6,0,0,1,1.46,1.09c.37.37.7.73,1,1.09a9.83,9.83,0,0,1,.82,1.13,9.22,9.22,0,0,1,.62,1.26,8.19,8.19,0,0,1,.44,1.49c.11-.41.23-.82.35-1.24s.24-.84.33-1.29.18-.91.24-1.4.07-.71.09-1.09l-1.18-1.33c-.76-.88-1.53-1.81-2.33-2.8s-1.54-2-2.25-3c-.24-.35-.54-.77-.88-1.28s-.71-1.06-1.07-1.67-.73-1.25-1.1-1.94-.68-1.39-1-2.1a17.31,17.31,0,0,1-.69-2.15,8.11,8.11,0,0,1-.28-2.08,5.46,5.46,0,0,1,.3-1.91,4.21,4.21,0,0,1,1-1.6,2.88,2.88,0,0,1,1.1-.73,2,2,0,0,1,1.07-.07,3,3,0,0,1,1.07.47,7.43,7.43,0,0,1,1,.88,12.84,12.84,0,0,1,1.76,2.23,27.64,27.64,0,0,1,1.55,2.73c.47.95.91,1.91,1.3,2.87s.73,1.84,1,2.65.52,1.49.69,2.07.29.95.34,1.13l.64,3.23.43-.09c-.08-.6-.16-1.25-.24-2s-.17-1.4-.23-2.07-.11-1.26-.14-1.8a5.23,5.23,0,0,1,0-1.17,4.27,4.27,0,0,1,.42-1.23,4.61,4.61,0,0,1,.92-1.26,1.78,1.78,0,0,1,.72-.44,2,2,0,0,1,.89-.08,2.66,2.66,0,0,1,1,.3,4,4,0,0,1,.95.71,3.06,3.06,0,0,1,.68,1.12,9.6,9.6,0,0,1,.36,1.45q.13.78.21,1.62c.05.56.12,1.11.21,1.63a8.76,8.76,0,0,0,.38,1.47,3.07,3.07,0,0,0,.69,1.13,1.06,1.06,0,0,0,.76.37,1.25,1.25,0,0,0,.76-.42,1.44,1.44,0,0,0,.32-.63,4.54,4.54,0,0,0,.15-.91c0-.34,0-.7,0-1.08s0-.76-.06-1.14-.07-.73-.1-1.07c0,0,0-.07,0-.11-.73-1-1.54-2.14-2.45-3.43-.09-.12-.21-.3-.36-.52s-.29-.48-.44-.77-.28-.6-.41-.92a5.13,5.13,0,0,1-.25-1,2.63,2.63,0,0,1,0-.93,1.79,1.79,0,0,1,.44-.81,3.28,3.28,0,0,1,1-.69.53.53,0,0,1,.56.06l1.07,1.5L318.06,17c.4.56.79,1.11,1.18,1.63l1,1.41c.3.42.54.75.73,1l.29.39a2.47,2.47,0,0,0,.41.33,1.47,1.47,0,0,0,.44.21.86.86,0,0,0,.42,0,.63.63,0,0,0,.37-.19,1.65,1.65,0,0,0,.37-.62,2.45,2.45,0,0,0,.11-.83,3.64,3.64,0,0,0-.18-1,4,4,0,0,0-.52-1l-4.45-6.61a1,1,0,0,1,0-.88,2.92,2.92,0,0,1,.7-1.06A2.36,2.36,0,0,1,320,9.06a.82.82,0,0,1,.83.17,9.1,9.1,0,0,1,.74.87c.29.38.61.8.94,1.28l1,1.47,1,1.42c.3.44.57.82.8,1.14a6.1,6.1,0,0,0,.52.65l.57.55a2.73,2.73,0,0,0,.52.38.92.92,0,0,0,.46.13.71.71,0,0,0,.43-.23,2.73,2.73,0,0,0,.47-.7,8.41,8.41,0,0,0,.41-1.06c.12-.39.23-.8.33-1.24s.17-.88.23-1.31.09-.84.1-1.23a7.79,7.79,0,0,0,0-1L330,11l.56.56.56.54ZM287,63.26a9,9,0,0,0-.76-.66c-.3-.24-.62-.47-.95-.71s-.67-.46-1-.69l-1-.65c-.8-.48-1.64-1-2.51-1.44q1.41,2,2.93,3.89A44.74,44.74,0,0,0,287,66.75a7.82,7.82,0,0,0,1.07.92,4.38,4.38,0,0,0,.83.45,1.49,1.49,0,0,0,.58.12.47.47,0,0,0,.31-.1.9.9,0,0,0,.18-1,4.51,4.51,0,0,0-.66-1.29,14.28,14.28,0,0,0-1.11-1.38C287.78,64.05,287.38,63.63,287,63.26Zm1.29-18.72a2.59,2.59,0,0,0-.64,1.09,4.54,4.54,0,0,0-.2,1.41,7.19,7.19,0,0,0,.18,1.56,10.55,10.55,0,0,0,.48,1.57,9.72,9.72,0,0,0,.73,1.44,6.38,6.38,0,0,0,.9,1.15,5.27,5.27,0,0,0,.57.49,2.45,2.45,0,0,0,.59.32,1.35,1.35,0,0,0,.59.07,1,1,0,0,0,.54-.29,1.37,1.37,0,0,0,.38-1.08,4.61,4.61,0,0,0-.27-1.41,9.23,9.23,0,0,0-.63-1.4,8.25,8.25,0,0,0-.68-1.06Zm5.34-8.11c-.18-.57-.35-1.18-.52-1.83s-.34-1.32-.53-2-.4-1.38-.63-2.07a21.21,21.21,0,0,0-.77-2.06,16.2,16.2,0,0,0-1-1.95,11.72,11.72,0,0,0-1.28-1.77,1.66,1.66,0,0,0-.2-.17,1.63,1.63,0,0,0-.37-.21,1.14,1.14,0,0,0-.44-.11.5.5,0,0,0-.41.18.86.86,0,0,0-.14.76,5.71,5.71,0,0,0,.37,1.3,17,17,0,0,0,.78,1.67c.31.6.65,1.23,1,1.87s.75,1.29,1.15,1.93.79,1.25,1.16,1.81.72,1.08,1,1.54Zm7-.7a3,3,0,0,0-.57-.45,1.44,1.44,0,0,0-.65-.22,1.7,1.7,0,0,0-.74.14,2.51,2.51,0,0,0-.81.59,2.69,2.69,0,0,0-.61.92,3.09,3.09,0,0,0-.22,1.2,4.57,4.57,0,0,0,.28,1.42,6.31,6.31,0,0,0,.87,1.62c.33.46.64.87.92,1.25l.77,1,.74.9c.31-.17.62-.35.91-.54s.51-.34.78-.54a6.4,6.4,0,0,0,.72-.61,1.63,1.63,0,0,0,.46-.89,3.35,3.35,0,0,0,0-1.13,6.13,6.13,0,0,0-.42-1.25,11.07,11.07,0,0,0-.69-1.26c-.27-.41-.55-.8-.84-1.16A12.5,12.5,0,0,0,300.61,35.73ZM305.53,26c-.37-.75-.74-1.49-1.1-2.23s-.71-1.43-1-2.08L302.55,20c-.11-.22-.23-.49-.38-.82s-.3-.7-.47-1.08-.34-.78-.53-1.19l-.56-1.16c-.19-.36-.37-.7-.55-1a3.63,3.63,0,0,0-.53-.7q-.34-.35-.57-.12a1.23,1.23,0,0,0-.38.82,3,3,0,0,0,.14,1.09,11.1,11.1,0,0,0,.54,1.43L300,19.1c.29.53.62,1.07,1,1.61s.7,1.07,1.06,1.59.72,1,1.09,1.51.71,1,1.05,1.37c.78,1,1.57,2,2.37,2.9C306.25,27.44,305.91,26.74,305.53,26Z"/><path d="M68.2,12.73a9.33,9.33,0,0,1-.08,1.1c-.06.42-.14.86-.24,1.33s-.24.95-.4,1.44A13.37,13.37,0,0,1,67,18a11.67,11.67,0,0,1-.66,1.27,6.09,6.09,0,0,1-.78,1,2.06,2.06,0,0,1-.87.54,2.11,2.11,0,0,1-1,.05,3.94,3.94,0,0,1-1.06-.34,10.23,10.23,0,0,1-1.17-.66,13.61,13.61,0,0,1,.12,1.77,10.55,10.55,0,0,1-.14,1.64A6.1,6.1,0,0,1,61,24.71a3.52,3.52,0,0,1-.72,1.08,2.66,2.66,0,0,1-.8.55,1.91,1.91,0,0,1-1,.16,2.83,2.83,0,0,1-1.1-.34,11.14,11.14,0,0,1-.34,1.47,9.69,9.69,0,0,1-.77,1.74,7.54,7.54,0,0,1-1.07,1.42,5.4,5.4,0,0,1-1.48,1.09,2.81,2.81,0,0,1-1.28.27,2.32,2.32,0,0,1-1.1-.33,4.22,4.22,0,0,1-.93-.72,5.49,5.49,0,0,1-.55-.67,6.65,6.65,0,0,1-.6-1.05,10.43,10.43,0,0,1-.53-1.48,14.46,14.46,0,0,1-.39-2c0-.26,0-.5,0-.71v-.57a1.73,1.73,0,0,0,0-.42.59.59,0,0,0-.16-.29,1,1,0,0,0-.46-.29.36.36,0,0,0-.37.09,1.18,1.18,0,0,0-.24.72,4.49,4.49,0,0,0,.19,1.48l2.42,8.82a2.27,2.27,0,0,1,.09,1.12,1.54,1.54,0,0,1-.45.79,1.73,1.73,0,0,1-.94.54,1.81,1.81,0,0,1-1-.13,3.76,3.76,0,0,1-1-.62c-.33-.27-.66-.58-1-.92l-.15-.15a13.08,13.08,0,0,1-.52,1.91A14.64,14.64,0,0,1,44,39.12c-.31.59-.66,1.21-1.05,1.83a3.53,3.53,0,0,1-.14.88c-.09.34-.19.66-.3,1s-.26.73-.43,1.11l-.27.28a10,10,0,0,1-2.1,1.58,18.56,18.56,0,0,1-2.22,1.07l-1,.39,0,.41a8.18,8.18,0,0,1-.41,1.84,3.73,3.73,0,0,1-.9,1.49,2.34,2.34,0,0,1-1.66.74,5.32,5.32,0,0,1-2.18-.52,6.72,6.72,0,0,1,0,1.26A7.76,7.76,0,0,1,31,53.86a7.2,7.2,0,0,1-.52,1.36,4.36,4.36,0,0,1-.82,1.15A3.78,3.78,0,0,1,27,57.44a4.2,4.2,0,0,1-1.58-.36A4.93,4.93,0,0,1,23.88,56a9.09,9.09,0,0,1-1.42-1.88c-.06.12-.12.25-.19.36a15.13,15.13,0,0,1-1,1.63,13.52,13.52,0,0,1-1.21,1.47q1,.43,2,1a20.31,20.31,0,0,1,1.79,1.12,12.9,12.9,0,0,1,1.75,1.46q.15.13.63.69c.33.36.69.81,1.09,1.34A17.51,17.51,0,0,1,28.42,65a8.34,8.34,0,0,1,.81,2,5,5,0,0,1,.11,2,3.37,3.37,0,0,1-1,1.85,2.77,2.77,0,0,1-1.74.85,4.49,4.49,0,0,1-2.17-.43,12.65,12.65,0,0,1-2.56-1.6,34.82,34.82,0,0,1-2.94-2.66,6.38,6.38,0,0,1-.57-.66l-.23-.29a1.87,1.87,0,0,1-.07.22,14,14,0,0,1-.8,2,6.22,6.22,0,0,1-1.11,1.56,3.58,3.58,0,0,1-1.11.8,2.26,2.26,0,0,1-1.07.18,2.3,2.3,0,0,1-1-.35,5.3,5.3,0,0,1-.8-.59c0,.52-.06,1-.11,1.51a17.78,17.78,0,0,1-.51,2.7,10.68,10.68,0,0,1-.83,2.16A6.12,6.12,0,0,1,9.6,77.81a4.28,4.28,0,0,1-1.53,1,4,4,0,0,1-1.76.27,5.12,5.12,0,0,1-1.89-.52A7,7,0,0,1,2.54,77.2a8.36,8.36,0,0,1-.73-.86c-.27-.36-.57-.79-.89-1.28s-.67-1-1-1.64-.74-1.24-1.14-1.92l-2.51,3.08L-6.18,77.5c.41.81.8,1.61,1.19,2.39s.74,1.53,1.06,2.23S-3.3,83.45-3,84s.49,1.08.68,1.49a7.5,7.5,0,0,1,.6,2.67,2,2,0,0,1-.43,1.39,2.49,2.49,0,0,1-.6.42,2,2,0,0,1-.7.2,1.84,1.84,0,0,1-.7-.08,1.64,1.64,0,0,1-.63-.4,2.12,2.12,0,0,1-.29-.38c-.81-1.42-1.55-2.82-2.22-4.22S-8.64,82.36-9.25,81a9.87,9.87,0,0,1-1.24,1,5.21,5.21,0,0,1-1.34.7,3.82,3.82,0,0,1-1.47.2,4.42,4.42,0,0,1-1.63-.42l-.42-.28a2.16,2.16,0,0,1-.33-.27c-.32-.32-.37-.6-.14-.82a1,1,0,0,1,.68-.24,9.46,9.46,0,0,1,1.36.08c.32-.36.65-.71,1-1.06s.69-.72,1.09-1.11l1-1c-.41-.93-.82-1.84-1.21-2.7s-.79-1.7-1.18-2.5a12.94,12.94,0,0,0-.87-1.45,8.11,8.11,0,0,0-1-1.21,5,5,0,0,0-.86-.71,2.26,2.26,0,0,0-.86-.36,1.84,1.84,0,0,0-.84,0,2.13,2.13,0,0,0-.81.54,4.19,4.19,0,0,0-.65.86,7,7,0,0,0-.6,1.31A13.9,13.9,0,0,0-20,73.4a21,21,0,0,0-.34,2.32,2.77,2.77,0,0,1-.17.76,1.59,1.59,0,0,1-.3.47q-.09.09-.42-.15a7.94,7.94,0,0,1-.76-.67,3.22,3.22,0,0,1-.81-1.35,5.29,5.29,0,0,1-.23-1.66,7.87,7.87,0,0,1,.25-1.81,12.22,12.22,0,0,1,.59-1.8,11.58,11.58,0,0,1,.85-1.6,7.3,7.3,0,0,1,1-1.25,6.83,6.83,0,0,1,1.66-1.25,4.44,4.44,0,0,1,1.89-.56,4.48,4.48,0,0,1,2,.34,6.34,6.34,0,0,1,2.08,1.47A11.06,11.06,0,0,1-11.62,68c.39.55.81,1.17,1.24,1.86S-9.5,71.28-9,72.09s.92,1.66,1.38,2.52c.69-.8,1.49-1.69,2.37-2.68l2.67-3q-1.26-2.38-2.54-5t-2.39-5.24a3.79,3.79,0,0,1-.34-1.65,2,2,0,0,1,.6-1.34,2.23,2.23,0,0,1,.5-.37,1.56,1.56,0,0,1,.58-.18,1.48,1.48,0,0,1,.61.1,1.64,1.64,0,0,1,.58.4,7.44,7.44,0,0,1,.55.62,3.88,3.88,0,0,1,.54.88c.29.62.59,1.28.91,2s.66,1.42,1,2.15.71,1.48,1.08,2.24S-.18,65.07.2,65.8l1.12-1.28L2,63.69l.21-.24c.06-.08.13-.14.18-.2a2.4,2.4,0,0,1,.6-.46,1,1,0,0,1,.5-.13.86.86,0,0,1,.44.12,1.75,1.75,0,0,1,.41.33,1,1,0,0,1,.29.48,1.35,1.35,0,0,1,0,.49,1.7,1.7,0,0,1-.18.44,3.54,3.54,0,0,1-.26.35l-.38.49-.17.2-.06.09-.07.09L3.33,66c-.1.12-.26.3-.46.55l-.69.84-.68.81c.64,1.15,1.27,2.19,1.89,3.11a14.22,14.22,0,0,0,1.78,2.24,2.63,2.63,0,0,0,1.47.85,1.67,1.67,0,0,0,1.45-.61A2.34,2.34,0,0,0,8.58,73,6.59,6.59,0,0,0,9,71.59a15.54,15.54,0,0,0,.22-2c.05-.76.07-1.63.07-2.62l.44.17.39.17c-.36-.53-.72-1.09-1.08-1.67-.5-.8-1-1.61-1.46-2.42S6.62,61.69,6.2,61A1.53,1.53,0,0,1,6,60.23a2.84,2.84,0,0,1,.2-.85,3.64,3.64,0,0,1,.41-.78,3.74,3.74,0,0,1,.5-.62,1.18,1.18,0,0,1,.79-.45.91.91,0,0,1,.62.28,4.78,4.78,0,0,1,.58.8c.23.38.48.81.75,1.3l.88,1.58c.32.56.64,1.12,1,1.67s.67,1.06,1,1.55a8.54,8.54,0,0,0,1,1.24,3.27,3.27,0,0,0,.89.67.61.61,0,0,0,.74-.16,2.56,2.56,0,0,0,.6-1.14,11,11,0,0,0,.3-1.61l0-.07c-.43-.59-.87-1.19-1.3-1.82s-.87-1.26-1.29-1.9-.8-1.24-1.14-1.82-.64-1.1-.88-1.58a6.63,6.63,0,0,1-.47-1.18,1.75,1.75,0,0,1,0-.75,2,2,0,0,1,.24-.66,4,4,0,0,1,.43-.59c.17-.19.34-.37.52-.55a.9.9,0,0,1,.77-.32,1.08,1.08,0,0,1,.65.31,3.23,3.23,0,0,1,.36.48c.15.22.3.48.46.75s.31.54.45.8l.3.56,1.13,2.36c.35-.48.69-.91,1-1.32A17.52,17.52,0,0,0,18.58,55a15.69,15.69,0,0,0,1.18-1.87A22.43,22.43,0,0,0,21,50.42a10.71,10.71,0,0,1-.21-1.13,10.93,10.93,0,0,1-.08-2.48,8.52,8.52,0,0,1,.52-2.24,5.1,5.1,0,0,1,1.15-1.8,1,1,0,0,1,.49-.29,1.19,1.19,0,0,1,.46,0l.42.06a.78.78,0,0,0,.4,0,1.38,1.38,0,0,0,.33-.2,3.73,3.73,0,0,0,.3-.26l.24-.25.24-.25a2,2,0,0,1,.33-.27.69.69,0,0,1,.4-.11,1,1,0,0,1,.47.13,2.48,2.48,0,0,1,.59.48A10.3,10.3,0,0,1,28.11,43c.35.49.7,1,1.06,1.54s.73,1.06,1.1,1.58a11.71,11.71,0,0,0,1.16,1.38,3.76,3.76,0,0,0,.9.71.54.54,0,0,0,.68-.11,1.53,1.53,0,0,0,.37-.59,4,4,0,0,0,.2-.81,6.21,6.21,0,0,0,.08-.64l-.47-.55c-.58-.7-1.26-1.53-2-2.5s-1.6-2.08-2.49-3.32q-.9-1.24-1.95-2.82c-.7-1-1.38-2.14-2-3.27s-1.27-2.27-1.82-3.41A21.46,21.46,0,0,1,21.59,27a8.77,8.77,0,0,1-.41-2.77,2.74,2.74,0,0,1,.78-2,3.79,3.79,0,0,1,1.61-1,2.78,2.78,0,0,1,1.54,0,4.66,4.66,0,0,1,1.5.77,15.81,15.81,0,0,1,1.48,1.31,9.19,9.19,0,0,1,1.75,2.52A19,19,0,0,1,31,29a30.67,30.67,0,0,1,.76,3.53c.18,1.2.33,2.37.44,3.5l.29-.06a15.46,15.46,0,0,1-.11-2.34A2.1,2.1,0,0,1,33,32.16a3.26,3.26,0,0,1,1.42-.86A3.8,3.8,0,0,1,36,31.2a4.81,4.81,0,0,1,1.61.55,6,6,0,0,1,1.46,1.09c.37.37.7.73,1,1.09a9.74,9.74,0,0,1,.81,1.13,7.38,7.38,0,0,1,.62,1.26,8.19,8.19,0,0,1,.44,1.49c.11-.41.23-.82.35-1.24s.24-.84.34-1.29.17-.91.23-1.4.07-.71.09-1.09c-.38-.42-.77-.86-1.17-1.33-.76-.88-1.54-1.81-2.34-2.8s-1.54-2-2.25-3c-.24-.35-.54-.77-.88-1.28s-.7-1.06-1.07-1.67-.73-1.25-1.1-1.94a21.94,21.94,0,0,1-1-2.1,15.84,15.84,0,0,1-.7-2.15,8.58,8.58,0,0,1-.28-2.08,6,6,0,0,1,.3-1.91,4.21,4.21,0,0,1,1-1.6,2.88,2.88,0,0,1,1.1-.73,2,2,0,0,1,1.07-.07,3,3,0,0,1,1.07.47,7.48,7.48,0,0,1,1.06.88,13.3,13.3,0,0,1,1.75,2.23,25.76,25.76,0,0,1,1.55,2.73c.48.95.91,1.91,1.3,2.87s.73,1.84,1,2.65.51,1.49.68,2.07.29.95.34,1.13l.64,3.23.43-.09c-.08-.6-.16-1.25-.24-2S45.11,25,45,24.31s-.1-1.26-.14-1.8a5.92,5.92,0,0,1,0-1.17,4.27,4.27,0,0,1,.42-1.23,4.61,4.61,0,0,1,.92-1.26,1.78,1.78,0,0,1,.72-.44,2,2,0,0,1,.89-.08,2.66,2.66,0,0,1,1,.3,3.79,3.79,0,0,1,1,.71,2.93,2.93,0,0,1,.68,1.12,8.54,8.54,0,0,1,.36,1.45q.13.78.21,1.62c0,.56.12,1.11.21,1.63a8.76,8.76,0,0,0,.38,1.47,3,3,0,0,0,.7,1.13,1,1,0,0,0,.75.37,1.25,1.25,0,0,0,.76-.42,1.45,1.45,0,0,0,.33-.63,4.58,4.58,0,0,0,.14-.91,9.63,9.63,0,0,0,0-1.08c0-.39,0-.76-.06-1.14s-.07-.73-.1-1.07c0,0,0-.07,0-.11-.72-1-1.54-2.14-2.45-3.43-.09-.12-.21-.3-.35-.52a8.75,8.75,0,0,1-.45-.77c-.14-.29-.28-.6-.4-.92a4,4,0,0,1-.25-1,2.42,2.42,0,0,1,0-.93,1.79,1.79,0,0,1,.44-.81,3.28,3.28,0,0,1,1-.69.53.53,0,0,1,.56.06l1.07,1.5L54.52,17l1.17,1.63,1,1.41c.29.42.53.75.72,1l.29.39a2.47,2.47,0,0,0,.41.33,1.47,1.47,0,0,0,.44.21A.87.87,0,0,0,59,22a.63.63,0,0,0,.37-.19,1.65,1.65,0,0,0,.37-.62,2.45,2.45,0,0,0,.11-.83,3,3,0,0,0-.18-1,4.34,4.34,0,0,0-.51-1l-4.46-6.61a1,1,0,0,1,0-.88,2.92,2.92,0,0,1,.7-1.06,2.33,2.33,0,0,1,1.08-.68.8.8,0,0,1,.82.17,7.84,7.84,0,0,1,.74.87c.29.38.61.8.94,1.28s.68,1,1,1.47.67,1,1,1.42.57.82.81,1.14a5.23,5.23,0,0,0,.51.65c.21.2.4.39.58.55a2.41,2.41,0,0,0,.51.38,1,1,0,0,0,.46.13.73.73,0,0,0,.44-.23,2.73,2.73,0,0,0,.46-.7,8.41,8.41,0,0,0,.41-1.06c.12-.39.23-.8.33-1.24s.17-.88.23-1.31.09-.84.1-1.23a5.31,5.31,0,0,0,0-1l.66.65.57.56.55.54C67.75,12.29,68,12.49,68.2,12.73ZM23.46,63.26a9,9,0,0,0-.76-.66c-.3-.24-.61-.47-.95-.71l-1-.69-1.05-.65c-.8-.48-1.63-1-2.51-1.44q1.41,2,2.93,3.89a44.74,44.74,0,0,0,3.36,3.75,8.46,8.46,0,0,0,1.07.92,4.42,4.42,0,0,0,.84.45,1.45,1.45,0,0,0,.57.12.47.47,0,0,0,.31-.1.9.9,0,0,0,.18-1,4.51,4.51,0,0,0-.66-1.29,12.91,12.91,0,0,0-1.11-1.38C24.23,64.05,23.83,63.63,23.46,63.26Zm1.3-18.72a2.51,2.51,0,0,0-.65,1.09,4.54,4.54,0,0,0-.2,1.41,8.69,8.69,0,0,0,.18,1.56,9.52,9.52,0,0,0,.49,1.57,8.84,8.84,0,0,0,.73,1.44,6.83,6.83,0,0,0,.89,1.15,6.44,6.44,0,0,0,.57.49,2.65,2.65,0,0,0,.59.32,1.35,1.35,0,0,0,.59.07,1,1,0,0,0,.54-.29,1.37,1.37,0,0,0,.38-1.08,4.61,4.61,0,0,0-.27-1.41,8.34,8.34,0,0,0-.63-1.4,8.25,8.25,0,0,0-.68-1.06Zm5.33-8.11q-.27-.85-.51-1.83t-.54-2c-.19-.69-.4-1.38-.62-2.07s-.49-1.39-.78-2.06a16.2,16.2,0,0,0-1-1.95,11.66,11.66,0,0,0-1.27-1.77l-.2-.17a1.71,1.71,0,0,0-.38-.21,1.1,1.1,0,0,0-.44-.11.5.5,0,0,0-.41.18.86.86,0,0,0-.14.76,5.71,5.71,0,0,0,.37,1.3A17,17,0,0,0,25,28.16c.31.6.65,1.23,1,1.87s.75,1.29,1.16,1.93.79,1.25,1.16,1.81.71,1.08,1,1.54S29.9,36.15,30.09,36.43Zm7-.7a3.36,3.36,0,0,0-.58-.45,1.44,1.44,0,0,0-.65-.22,1.73,1.73,0,0,0-.74.14,2.51,2.51,0,0,0-.81.59,2.69,2.69,0,0,0-.61.92,3.09,3.09,0,0,0-.22,1.2,4.57,4.57,0,0,0,.28,1.42A6.63,6.63,0,0,0,34.61,41c.33.46.64.87.92,1.25l.77,1,.74.9c.32-.17.62-.35.91-.54s.51-.34.78-.54a6.4,6.4,0,0,0,.72-.61,1.63,1.63,0,0,0,.46-.89,3.11,3.11,0,0,0,0-1.13,5.57,5.57,0,0,0-.42-1.25,11.07,11.07,0,0,0-.69-1.26c-.27-.41-.55-.8-.84-1.16A12.5,12.5,0,0,0,37.07,35.73ZM42,26c-.37-.75-.74-1.49-1.1-2.23s-.71-1.43-1-2.08-.6-1.2-.84-1.65l-.38-.82c-.14-.34-.3-.7-.47-1.08s-.34-.78-.53-1.19l-.56-1.16c-.19-.36-.37-.7-.55-1a4.09,4.09,0,0,0-.52-.7c-.24-.23-.43-.27-.58-.12a1.23,1.23,0,0,0-.38.82,3.26,3.26,0,0,0,.15,1.09,9.62,9.62,0,0,0,.53,1.43c.24.53.49,1.13.78,1.79s.62,1.07,1,1.61.7,1.07,1.06,1.59.72,1,1.09,1.51.72,1,1,1.37c.78,1,1.57,2,2.37,2.9C42.7,27.44,42.36,26.74,42,26Z"/><path d="M146.64,15.94a7.58,7.58,0,0,1-.08,1.1,12.13,12.13,0,0,1-.24,1.33,14.09,14.09,0,0,1-.39,1.44c-.16.49-.33,1-.53,1.42a10.19,10.19,0,0,1-.67,1.27,5.18,5.18,0,0,1-.78,1,1.94,1.94,0,0,1-.87.54,2.06,2.06,0,0,1-1,.05,3.94,3.94,0,0,1-1.06-.34,10.23,10.23,0,0,1-1.17-.66,12,12,0,0,1,.11,1.77,9.45,9.45,0,0,1-.14,1.64,6.1,6.1,0,0,1-.42,1.41,3.35,3.35,0,0,1-.72,1.08,2.5,2.5,0,0,1-.79.55,1.91,1.91,0,0,1-1,.16,2.87,2.87,0,0,1-1.11-.34,8.67,8.67,0,0,1-.34,1.47,8.46,8.46,0,0,1-.77,1.74A6.77,6.77,0,0,1,133.68,34a5.23,5.23,0,0,1-1.47,1.09,2.87,2.87,0,0,1-1.28.27,2.32,2.32,0,0,1-1.1-.33,4,4,0,0,1-.93-.72,5.45,5.45,0,0,1-.56-.67,6.24,6.24,0,0,1-.59-1,10.43,10.43,0,0,1-.53-1.48,12,12,0,0,1-.39-2v-.71a5.39,5.39,0,0,0,0-.57,2.5,2.5,0,0,0,0-.42.61.61,0,0,0-.17-.29,1,1,0,0,0-.45-.29.38.38,0,0,0-.38.09,1.25,1.25,0,0,0-.24.72,4.55,4.55,0,0,0,.2,1.48L128.17,38a2.57,2.57,0,0,1,.09,1.13,1.63,1.63,0,0,1-.45.78,1.77,1.77,0,0,1-.94.54,1.79,1.79,0,0,1-1-.13,4,4,0,0,1-1-.62c-.32-.27-.66-.58-1-.92l-.15-.15a13.06,13.06,0,0,1-.51,1.91,14.64,14.64,0,0,1-.79,1.83q-.47.9-1,1.83a3.53,3.53,0,0,1-.14.88c-.09.34-.19.66-.3,1s-.27.73-.44,1.11l-.27.28A9.65,9.65,0,0,1,118.19,49,20.15,20.15,0,0,1,116,50.05q-.51.21-1,.39c0,.13,0,.27,0,.41a8.16,8.16,0,0,1-.4,1.84,3.74,3.74,0,0,1-.91,1.49,2.32,2.32,0,0,1-1.66.74,5.31,5.31,0,0,1-2.17-.52,8.1,8.1,0,0,1-.28,2.67,7.24,7.24,0,0,1-.53,1.36,4.33,4.33,0,0,1-.81,1.15,3.78,3.78,0,0,1-2.72,1.07,4.16,4.16,0,0,1-1.58-.36,4.93,4.93,0,0,1-1.52-1.06,9.13,9.13,0,0,1-1.43-1.88l-.18.36a16.92,16.92,0,0,1-1,1.63,13.52,13.52,0,0,1-1.21,1.47q1,.44,1.95,1a20.24,20.24,0,0,1,1.78,1.12A12.4,12.4,0,0,1,104,64.38l.63.69a16.39,16.39,0,0,1,1.08,1.34,16,16,0,0,1,1.15,1.8,8.8,8.8,0,0,1,.82,2,5,5,0,0,1,.1,2,3.32,3.32,0,0,1-1,1.85A2.77,2.77,0,0,1,105,75a4.48,4.48,0,0,1-2.16-.43,12.38,12.38,0,0,1-2.56-1.6,34.58,34.58,0,0,1-2.95-2.65c-.11-.12-.3-.34-.56-.67-.08-.09-.15-.19-.23-.29a1.87,1.87,0,0,0-.07.22,12.9,12.9,0,0,1-.81,2,6,6,0,0,1-1.1,1.56,3.58,3.58,0,0,1-1.11.8,2.28,2.28,0,0,1-1.07.18,2.34,2.34,0,0,1-1-.35,5.23,5.23,0,0,1-.79-.59c0,.52-.06,1-.12,1.52a17.92,17.92,0,0,1-.5,2.69,11.31,11.31,0,0,1-.83,2.16A6.39,6.39,0,0,1,88.05,81a4.46,4.46,0,0,1-1.53,1,4.07,4.07,0,0,1-1.77.27,5.07,5.07,0,0,1-1.88-.52A7,7,0,0,1,81,80.41a8.36,8.36,0,0,1-.73-.86c-.28-.36-.57-.79-.9-1.28s-.66-1-1-1.64-.74-1.24-1.13-1.92l-2.52,3.08c-.8,1-1.61,1.95-2.41,2.92.4.81.8,1.61,1.18,2.39s.74,1.53,1.07,2.23.62,1.33.89,1.91l.69,1.49a7.66,7.66,0,0,1,.59,2.67,2,2,0,0,1-.43,1.39,2.15,2.15,0,0,1-.6.42,1.83,1.83,0,0,1-1.4.12,1.69,1.69,0,0,1-.62-.4,1.79,1.79,0,0,1-.3-.38c-.8-1.42-1.54-2.82-2.22-4.22s-1.32-2.76-1.93-4.11a9.21,9.21,0,0,1-1.24,1,5.06,5.06,0,0,1-1.34.7,3.75,3.75,0,0,1-1.46.2,4.33,4.33,0,0,1-1.63-.42c-.16-.1-.3-.19-.42-.28a2.16,2.16,0,0,1-.33-.27c-.32-.32-.37-.6-.15-.82a1,1,0,0,1,.69-.24,9.4,9.4,0,0,1,1.35.08l1-1.06,1.09-1.11,1.05-1-1.21-2.7c-.39-.86-.79-1.7-1.19-2.5a12.88,12.88,0,0,0-.86-1.45,8.11,8.11,0,0,0-1-1.21,5,5,0,0,0-.86-.71,2.33,2.33,0,0,0-.86-.36,1.84,1.84,0,0,0-.84.05,2.08,2.08,0,0,0-.82.54,4.58,4.58,0,0,0-.65.86,7.72,7.72,0,0,0-.59,1.31,13.9,13.9,0,0,0-.5,1.78,20.88,20.88,0,0,0-.35,2.32,2.44,2.44,0,0,1-.17.76,1.27,1.27,0,0,1-.3.47c-.06.06-.19,0-.42-.15a8,8,0,0,1-.75-.67A3.35,3.35,0,0,1,55.61,78a5.29,5.29,0,0,1-.22-1.66,8.42,8.42,0,0,1,.24-1.81,11.18,11.18,0,0,1,.6-1.8,11.58,11.58,0,0,1,.85-1.6,7.79,7.79,0,0,1,1-1.25,7.08,7.08,0,0,1,1.67-1.25,4.46,4.46,0,0,1,3.91-.22,6.37,6.37,0,0,1,2.09,1.47,10.19,10.19,0,0,1,1.08,1.31c.4.55.81,1.17,1.25,1.86s.87,1.45,1.33,2.27.92,1.65,1.37,2.51c.7-.8,1.49-1.69,2.38-2.68s1.77-2,2.67-3c-.85-1.59-1.69-3.25-2.54-5s-1.65-3.49-2.4-5.24a3.63,3.63,0,0,1-.33-1.65A2,2,0,0,1,71.14,59a2.29,2.29,0,0,1,.51-.37,1.51,1.51,0,0,1,.58-.18,1.41,1.41,0,0,1,.6.1,1.76,1.76,0,0,1,.59.4,7.44,7.44,0,0,1,.55.62,3.88,3.88,0,0,1,.54.88c.28.62.59,1.28.91,2s.66,1.42,1,2.15.71,1.48,1.08,2.24.75,1.51,1.14,2.24l1.12-1.28.71-.83a2.57,2.57,0,0,1,.21-.24,1.8,1.8,0,0,1,.18-.2,2.58,2.58,0,0,1,.59-.46,1,1,0,0,1,.51-.13.88.88,0,0,1,.44.12,2.28,2.28,0,0,1,.41.33.92.92,0,0,1,.28.48,1,1,0,0,1,0,.49,1.21,1.21,0,0,1-.18.44,2.41,2.41,0,0,1-.25.35l-.39.49c-.07.1-.13.16-.16.2l-.06.09L82,69l-.21.24c-.11.12-.26.3-.46.55s-.47.57-.69.84l-.68.81c.63,1.15,1.26,2.19,1.88,3.11a14.81,14.81,0,0,0,1.79,2.24,2.63,2.63,0,0,0,1.47.85A1.68,1.68,0,0,0,86.54,77a2.51,2.51,0,0,0,.49-.81,6.59,6.59,0,0,0,.38-1.37,17.64,17.64,0,0,0,.22-2c.05-.76.07-1.63.07-2.62l.44.17.38.17c-.36-.53-.72-1.09-1.08-1.67-.49-.8-1-1.61-1.45-2.42s-.93-1.57-1.34-2.24a1.36,1.36,0,0,1-.18-.79,2.83,2.83,0,0,1,.19-.85,4.21,4.21,0,0,1,.42-.78,3.29,3.29,0,0,1,.5-.62,1.16,1.16,0,0,1,.79-.45A.88.88,0,0,1,87,61a4.27,4.27,0,0,1,.58.8c.23.38.48.81.76,1.3s.56,1,.88,1.58.64,1.12,1,1.67.67,1.06,1,1.55a9.26,9.26,0,0,0,1,1.24,3.12,3.12,0,0,0,.89.67.6.6,0,0,0,.73-.16,2.56,2.56,0,0,0,.6-1.14,10.69,10.69,0,0,0,.31-1.61l0-.07c-.42-.59-.86-1.19-1.3-1.82s-.87-1.26-1.28-1.9-.8-1.24-1.15-1.82-.63-1.1-.87-1.58a6.63,6.63,0,0,1-.47-1.18,1.76,1.76,0,0,1,0-.75,2.3,2.3,0,0,1,.25-.66,3.41,3.41,0,0,1,.43-.59l.51-.55a.93.93,0,0,1,.78-.32,1.11,1.11,0,0,1,.65.31,3.34,3.34,0,0,1,.35.48c.15.22.31.48.47.75s.3.54.44.8l.31.56,1.13,2.36c.34-.48.69-.91,1-1.32s.72-.86,1.1-1.38a18.73,18.73,0,0,0,1.18-1.87,24.21,24.21,0,0,0,1.23-2.74c-.08-.37-.16-.75-.21-1.13A10.92,10.92,0,0,1,99.16,50a8.14,8.14,0,0,1,.51-2.24,5.12,5.12,0,0,1,1.16-1.8.91.91,0,0,1,.49-.29,1.14,1.14,0,0,1,.45,0l.43.06a.73.73,0,0,0,.39,0,1.27,1.27,0,0,0,.34-.2l.29-.26.24-.25.24-.25a1.68,1.68,0,0,1,.34-.27.68.68,0,0,1,.39-.11,1,1,0,0,1,.48.13,2.48,2.48,0,0,1,.59.48,9.46,9.46,0,0,1,1,1.27c.35.49.71,1,1.07,1.54s.73,1.06,1.1,1.58a10.82,10.82,0,0,0,1.16,1.38,4,4,0,0,0,.89.71.55.55,0,0,0,.69-.11,1.64,1.64,0,0,0,.36-.59,4.79,4.79,0,0,0,.21-.81,6.27,6.27,0,0,0,.07-.64l-.47-.55c-.58-.7-1.25-1.53-2-2.5s-1.59-2.08-2.49-3.32c-.59-.83-1.24-1.77-1.94-2.82s-1.38-2.14-2-3.27-1.27-2.27-1.82-3.41A21.46,21.46,0,0,1,100,30.19a9.11,9.11,0,0,1-.42-2.77,2.82,2.82,0,0,1,.78-2A3.89,3.89,0,0,1,102,24.4a2.82,2.82,0,0,1,1.55,0,4.52,4.52,0,0,1,1.49.77,15.89,15.89,0,0,1,1.49,1.31A9,9,0,0,1,108.28,29a18.2,18.2,0,0,1,1.19,3.21,28.68,28.68,0,0,1,.75,3.53c.19,1.2.33,2.37.44,3.5l.3-.06a15.46,15.46,0,0,1-.11-2.34,2.14,2.14,0,0,1,.54-1.47,3.29,3.29,0,0,1,1.43-.86,3.75,3.75,0,0,1,1.6-.1A4.74,4.74,0,0,1,116,35a5.86,5.86,0,0,1,1.46,1.09c.37.37.71.73,1,1.09a9.74,9.74,0,0,1,.81,1.13,8.23,8.23,0,0,1,.63,1.26,9.07,9.07,0,0,1,.44,1.49c.11-.41.23-.82.35-1.24s.23-.84.33-1.29.18-.91.24-1.4.07-.71.08-1.09l-1.17-1.33c-.76-.88-1.53-1.81-2.33-2.8s-1.54-2-2.25-3l-.89-1.28c-.34-.5-.7-1.06-1.06-1.67s-.74-1.25-1.1-1.94a22,22,0,0,1-1-2.1,19.23,19.23,0,0,1-.7-2.15,8.55,8.55,0,0,1-.27-2.08,5.46,5.46,0,0,1,.3-1.91,4.21,4.21,0,0,1,1-1.6,2.86,2.86,0,0,1,1.09-.73,2,2,0,0,1,1.08-.07,2.91,2.91,0,0,1,1.06.47,7,7,0,0,1,1.06.88A13.33,13.33,0,0,1,118,17a27.64,27.64,0,0,1,1.55,2.73c.47.95.91,1.91,1.3,2.87s.73,1.84,1,2.65.51,1.49.69,2.07.29.95.34,1.13l.64,3.24.42-.1c-.07-.6-.15-1.25-.24-2s-.16-1.4-.22-2.07-.11-1.26-.14-1.8a5.23,5.23,0,0,1,0-1.17,4.55,4.55,0,0,1,.41-1.23,4.87,4.87,0,0,1,.93-1.26,1.78,1.78,0,0,1,.72-.44,2,2,0,0,1,.89-.08,2.66,2.66,0,0,1,1,.3,3.75,3.75,0,0,1,.94.71,2.81,2.81,0,0,1,.68,1.12,8.53,8.53,0,0,1,.37,1.45q.14.78.21,1.62c.05.56.12,1.11.21,1.63a8.77,8.77,0,0,0,.37,1.47,3.09,3.09,0,0,0,.7,1.13,1,1,0,0,0,.75.37,1.27,1.27,0,0,0,.77-.42,1.44,1.44,0,0,0,.32-.63,4,4,0,0,0,.14-.91,9.55,9.55,0,0,0,0-1.08c0-.39,0-.76-.06-1.14s-.07-.73-.1-1.06a.53.53,0,0,1,0-.12c-.73-1-1.54-2.14-2.45-3.43l-.36-.52c-.14-.23-.29-.48-.44-.77s-.28-.6-.41-.92a4.47,4.47,0,0,1-.25-1,2.63,2.63,0,0,1,0-.93,1.79,1.79,0,0,1,.44-.81,3.16,3.16,0,0,1,1-.69.53.53,0,0,1,.56.06c.32.45.67.95,1.07,1.5L133,20.16l1.17,1.63,1,1.41c.3.42.54.75.73,1s.28.38.28.39a2.53,2.53,0,0,0,.42.33,1.42,1.42,0,0,0,.43.21.91.91,0,0,0,.43,0,.63.63,0,0,0,.37-.19,1.52,1.52,0,0,0,.36-.62,2.23,2.23,0,0,0,.12-.83,3.64,3.64,0,0,0-.18-1,4.39,4.39,0,0,0-.52-1l-4.45-6.61a1,1,0,0,1,0-.88,2.89,2.89,0,0,1,.69-1.06,2.33,2.33,0,0,1,1.08-.68.82.82,0,0,1,.83.17,10.57,10.57,0,0,1,.74.87c.29.38.6.8.94,1.28l1,1.47,1,1.42c.3.44.57.82.8,1.14a6.1,6.1,0,0,0,.52.65c.2.2.39.39.57.55a3,3,0,0,0,.51.38,1,1,0,0,0,.47.13.71.71,0,0,0,.43-.23,2.73,2.73,0,0,0,.47-.7,8.46,8.46,0,0,0,.4-1.06c.13-.39.24-.8.34-1.24s.17-.88.23-1.31.08-.84.1-1.23a7.79,7.79,0,0,0,0-1l.65.65.57.56c.18.17.36.36.56.54S146.41,15.7,146.64,15.94ZM101.91,66.47a9.28,9.28,0,0,0-.77-.66c-.29-.24-.61-.47-.94-.71s-.67-.46-1-.69l-1-.65c-.8-.48-1.64-1-2.51-1.44.94,1.32,1.91,2.61,2.93,3.89A44.74,44.74,0,0,0,101.91,70a7.26,7.26,0,0,0,1.07.92,4.1,4.1,0,0,0,.83.45,1.46,1.46,0,0,0,.58.12.44.44,0,0,0,.3-.1.9.9,0,0,0,.18-1,4.46,4.46,0,0,0-.65-1.29,14.46,14.46,0,0,0-1.12-1.38C102.68,67.26,102.28,66.84,101.91,66.47Zm1.29-18.72a2.61,2.61,0,0,0-.65,1.09,4.54,4.54,0,0,0-.19,1.41,7.19,7.19,0,0,0,.18,1.56,9.49,9.49,0,0,0,.48,1.57,9.72,9.72,0,0,0,.73,1.44,6.38,6.38,0,0,0,.9,1.15,5.27,5.27,0,0,0,.57.49,2,2,0,0,0,.59.32,1.35,1.35,0,0,0,.59.07,1,1,0,0,0,.54-.29,1.41,1.41,0,0,0,.38-1.08,4.93,4.93,0,0,0-.27-1.41,9.23,9.23,0,0,0-.63-1.4,9.5,9.5,0,0,0-.68-1.06Zm5.34-8.11c-.18-.57-.35-1.18-.52-1.83s-.34-1.32-.53-2-.4-1.38-.63-2.07a21.21,21.21,0,0,0-.77-2.06,16.2,16.2,0,0,0-1-2A11.72,11.72,0,0,0,103.82,28l-.2-.17a1.63,1.63,0,0,0-.37-.21,1.14,1.14,0,0,0-.44-.11.5.5,0,0,0-.41.18.86.86,0,0,0-.15.76,5.8,5.8,0,0,0,.38,1.3c.2.51.46,1.06.77,1.67s.66,1.23,1,1.87.75,1.29,1.15,1.93.79,1.25,1.16,1.81.72,1.08,1,1.54S108.34,39.36,108.54,39.64Zm7-.7a2.74,2.74,0,0,0-.58-.45,1.4,1.4,0,0,0-.64-.22,1.7,1.7,0,0,0-.74.14,2.65,2.65,0,0,0-.82.59,2.82,2.82,0,0,0-.6.92,3.09,3.09,0,0,0-.22,1.2,4.54,4.54,0,0,0,.27,1.42,6.2,6.2,0,0,0,.88,1.62c.33.46.63.87.92,1.25s.54.7.77,1l.74.9q.47-.26.9-.54c.26-.16.52-.34.79-.54a6.4,6.4,0,0,0,.72-.61,1.62,1.62,0,0,0,.45-.89,3.09,3.09,0,0,0,0-1.13,6.81,6.81,0,0,0-.42-1.25,11.07,11.07,0,0,0-.69-1.26c-.27-.41-.55-.8-.84-1.16A12.5,12.5,0,0,0,115.51,38.94Zm4.92-9.74L119.32,27c-.36-.73-.7-1.43-1-2.08l-.84-1.65c-.11-.21-.24-.49-.38-.82l-.47-1.08c-.17-.38-.34-.78-.53-1.19L115.51,19c-.19-.36-.37-.7-.55-1a4.08,4.08,0,0,0-.53-.7q-.34-.35-.57-.12a1.25,1.25,0,0,0-.39.82,3.26,3.26,0,0,0,.15,1.09,11.1,11.1,0,0,0,.54,1.43l.77,1.79c.3.53.62,1.07,1,1.61s.7,1.07,1,1.59.73,1,1.09,1.51.72.95,1.06,1.37c.78,1,1.57,2,2.37,2.9Z"/><path d="M232.22,15.94a7.58,7.58,0,0,1-.08,1.1,12.13,12.13,0,0,1-.24,1.33,14.09,14.09,0,0,1-.39,1.44c-.16.49-.34,1-.53,1.42a11.72,11.72,0,0,1-.67,1.27,5.18,5.18,0,0,1-.78,1,1.94,1.94,0,0,1-.87.54,2.06,2.06,0,0,1-1,.05,4,4,0,0,1-1.07-.34,10.15,10.15,0,0,1-1.16-.66,12,12,0,0,1,.11,1.77,9.45,9.45,0,0,1-.14,1.64,6.1,6.1,0,0,1-.42,1.41A3.52,3.52,0,0,1,224.3,29a2.62,2.62,0,0,1-.79.55,1.93,1.93,0,0,1-1,.16,2.83,2.83,0,0,1-1.1-.34,8.67,8.67,0,0,1-.34,1.47,9,9,0,0,1-.77,1.74A6.77,6.77,0,0,1,219.26,34a5.23,5.23,0,0,1-1.47,1.09,2.88,2.88,0,0,1-1.29.27,2.35,2.35,0,0,1-1.1-.33,4.17,4.17,0,0,1-.92-.72,5.45,5.45,0,0,1-.56-.67,6.24,6.24,0,0,1-.59-1,11.75,11.75,0,0,1-.54-1.48,13.17,13.17,0,0,1-.38-2v-.71a5.39,5.39,0,0,0,0-.57,1.73,1.73,0,0,0,0-.42.52.52,0,0,0-.16-.29,1,1,0,0,0-.45-.29.37.37,0,0,0-.38.09,1.25,1.25,0,0,0-.24.72,4.55,4.55,0,0,0,.2,1.48L213.75,38a2.4,2.4,0,0,1,.08,1.13,1.54,1.54,0,0,1-.44.78,1.77,1.77,0,0,1-.94.54,1.79,1.79,0,0,1-1-.13,3.8,3.8,0,0,1-1-.62c-.32-.27-.66-.58-1-.92l-.15-.15a14.46,14.46,0,0,1-.51,1.91,16.29,16.29,0,0,1-.79,1.83c-.31.6-.66,1.21-1.06,1.83a3.46,3.46,0,0,1-.13.88c-.09.34-.19.66-.3,1s-.27.73-.44,1.11l-.27.28A9.9,9.9,0,0,1,203.77,49a20.15,20.15,0,0,1-2.22,1.07q-.51.21-1,.39c0,.13,0,.27,0,.41a8.16,8.16,0,0,1-.4,1.84,3.86,3.86,0,0,1-.91,1.49,2.34,2.34,0,0,1-1.66.74,5.28,5.28,0,0,1-2.17-.52,7.7,7.7,0,0,1,0,1.26,8.72,8.72,0,0,1-.26,1.41,8,8,0,0,1-.53,1.36,4.57,4.57,0,0,1-.81,1.15A3.82,3.82,0,0,1,191,60.65a4.16,4.16,0,0,1-1.58-.36,4.82,4.82,0,0,1-1.52-1.06,9.13,9.13,0,0,1-1.43-1.88c-.06.12-.12.25-.18.36a15.09,15.09,0,0,1-1,1.63,13.45,13.45,0,0,1-1.2,1.47q1,.44,1.95,1c.55.31,1.15.68,1.78,1.12a13,13,0,0,1,1.76,1.46l.63.69c.32.36.69.81,1.08,1.34a16,16,0,0,1,1.15,1.8,8.8,8.8,0,0,1,.82,2,5,5,0,0,1,.1,2,3.27,3.27,0,0,1-1,1.85,2.75,2.75,0,0,1-1.74.85,4.48,4.48,0,0,1-2.16-.43A12.38,12.38,0,0,1,185.9,73a34.58,34.58,0,0,1-3-2.65c-.11-.12-.3-.34-.56-.67l-.24-.29-.06.22a14,14,0,0,1-.81,2,6,6,0,0,1-1.11,1.56,3.36,3.36,0,0,1-1.11.8,2.24,2.24,0,0,1-1.06.18,2.34,2.34,0,0,1-1-.35,5.23,5.23,0,0,1-.79-.59c0,.52-.06,1-.12,1.52a17.92,17.92,0,0,1-.5,2.69,12,12,0,0,1-.83,2.16A6.39,6.39,0,0,1,173.63,81a4.46,4.46,0,0,1-1.53,1,4.09,4.09,0,0,1-1.77.27,5.07,5.07,0,0,1-1.88-.52,7,7,0,0,1-1.88-1.38,8.36,8.36,0,0,1-.73-.86c-.28-.36-.58-.79-.9-1.28s-.67-1-1-1.64-.74-1.24-1.13-1.92c-.87,1.07-1.71,2.1-2.52,3.08s-1.61,1.95-2.42,2.92c.41.81.81,1.61,1.19,2.39s.74,1.53,1.07,2.23.62,1.33.89,1.91l.69,1.49a7.66,7.66,0,0,1,.59,2.67,2,2,0,0,1-.43,1.39,2.15,2.15,0,0,1-.6.42,1.94,1.94,0,0,1-.7.2,1.87,1.87,0,0,1-.7-.08,1.54,1.54,0,0,1-.62-.4,1.79,1.79,0,0,1-.3-.38c-.8-1.42-1.54-2.82-2.22-4.22s-1.32-2.76-1.93-4.11a9.21,9.21,0,0,1-1.24,1,5.21,5.21,0,0,1-1.34.7,3.77,3.77,0,0,1-1.47.2,4.33,4.33,0,0,1-1.62-.42l-.42-.28a2.88,2.88,0,0,1-.34-.27c-.31-.32-.36-.6-.14-.82a1,1,0,0,1,.68-.24,9.46,9.46,0,0,1,1.36.08l1-1.06,1.09-1.11,1.05-1-1.21-2.7c-.39-.86-.79-1.7-1.19-2.5a12.88,12.88,0,0,0-.86-1.45,8.11,8.11,0,0,0-1-1.21,5.38,5.38,0,0,0-.86-.71,2.33,2.33,0,0,0-.86-.36,1.83,1.83,0,0,0-.84.05,2.08,2.08,0,0,0-.82.54,4.58,4.58,0,0,0-.65.86,8.56,8.56,0,0,0-.6,1.31,14,14,0,0,0-.49,1.78,20.88,20.88,0,0,0-.35,2.32,2.77,2.77,0,0,1-.17.76,1.27,1.27,0,0,1-.3.47q-.09.09-.42-.15a9.37,9.37,0,0,1-.76-.67,3.44,3.44,0,0,1-.81-1.35,5.29,5.29,0,0,1-.23-1.66,9.14,9.14,0,0,1,.25-1.81,11.18,11.18,0,0,1,.6-1.8,11.58,11.58,0,0,1,.85-1.6,7.79,7.79,0,0,1,1-1.25,6.88,6.88,0,0,1,1.67-1.25,4.46,4.46,0,0,1,3.91-.22,6.37,6.37,0,0,1,2.09,1.47,10.19,10.19,0,0,1,1.08,1.31c.4.55.81,1.17,1.24,1.86s.88,1.45,1.34,2.27.91,1.65,1.37,2.51c.7-.8,1.49-1.69,2.38-2.68l2.66-3q-1.26-2.39-2.53-5t-2.4-5.24a3.63,3.63,0,0,1-.33-1.65,2,2,0,0,1,.59-1.34,2.08,2.08,0,0,1,.51-.37,1.51,1.51,0,0,1,.58-.18,1.41,1.41,0,0,1,.6.1,1.76,1.76,0,0,1,.59.4,7.44,7.44,0,0,1,.55.62,3.88,3.88,0,0,1,.54.88c.28.62.58,1.28.91,2s.66,1.42,1,2.15.71,1.48,1.09,2.24.75,1.51,1.14,2.24c.43-.49.8-.91,1.11-1.28l.72-.83.2-.24.19-.2A2.38,2.38,0,0,1,167,66a1,1,0,0,1,.5-.13A.89.89,0,0,1,168,66a2.28,2.28,0,0,1,.41.33.92.92,0,0,1,.28.48,1,1,0,0,1,0,.49,1.21,1.21,0,0,1-.18.44,3.53,3.53,0,0,1-.25.35l-.39.49-.16.2s-.06.07-.06.09l-.07.09a3.06,3.06,0,0,1-.22.24l-.45.55-.7.84c-.22.28-.45.55-.68.81.64,1.15,1.27,2.19,1.89,3.11a14.82,14.82,0,0,0,1.78,2.24,2.69,2.69,0,0,0,1.47.85,1.67,1.67,0,0,0,1.45-.61,2.35,2.35,0,0,0,.5-.81A7.27,7.27,0,0,0,173,74.8a17.64,17.64,0,0,0,.22-2c0-.76.07-1.63.07-2.62l.43.17.39.17c-.36-.53-.72-1.09-1.08-1.67-.49-.8-1-1.61-1.46-2.42s-.92-1.57-1.33-2.24a1.36,1.36,0,0,1-.18-.79,2.83,2.83,0,0,1,.19-.85,4.84,4.84,0,0,1,.41-.78,3.75,3.75,0,0,1,.51-.62,1.15,1.15,0,0,1,.78-.45.89.89,0,0,1,.62.28,4.78,4.78,0,0,1,.58.8c.23.38.48.81.75,1.3l.89,1.58c.31.56.64,1.12,1,1.67s.66,1.06,1,1.55a8,8,0,0,0,1,1.24,3,3,0,0,0,.89.67.6.6,0,0,0,.73-.16,2.56,2.56,0,0,0,.6-1.14,10.69,10.69,0,0,0,.31-1.61l-.05-.07c-.43-.59-.86-1.19-1.3-1.82s-.87-1.26-1.29-1.9-.79-1.24-1.14-1.82-.63-1.1-.87-1.58a5.94,5.94,0,0,1-.47-1.18,1.76,1.76,0,0,1,0-.75,2.3,2.3,0,0,1,.25-.66,3.41,3.41,0,0,1,.43-.59l.51-.55a.91.91,0,0,1,.78-.32,1.14,1.14,0,0,1,.65.31,4.37,4.37,0,0,1,.35.48c.15.22.3.48.46.75s.31.54.45.8l.31.56,1.13,2.36c.34-.48.69-.91,1-1.32s.72-.86,1.1-1.38a18.73,18.73,0,0,0,1.18-1.87A24.21,24.21,0,0,0,185,53.63c-.08-.37-.16-.75-.21-1.13a10.92,10.92,0,0,1-.07-2.48,8.14,8.14,0,0,1,.51-2.24,5,5,0,0,1,1.16-1.8.91.91,0,0,1,.49-.29,1.14,1.14,0,0,1,.45,0l.43.06a.73.73,0,0,0,.39,0,1.45,1.45,0,0,0,.34-.2l.29-.26L189,45l.24-.25a1.68,1.68,0,0,1,.34-.27.68.68,0,0,1,.39-.11,1.05,1.05,0,0,1,.48.13,2.69,2.69,0,0,1,.59.48,9.46,9.46,0,0,1,1,1.27c.35.49.71,1,1.07,1.54s.72,1.06,1.1,1.58a10.82,10.82,0,0,0,1.16,1.38,4,4,0,0,0,.89.71.55.55,0,0,0,.69-.11,1.64,1.64,0,0,0,.36-.59,4.79,4.79,0,0,0,.21-.81c0-.2,0-.42.07-.64l-.47-.55c-.58-.7-1.25-1.53-2-2.5s-1.59-2.08-2.49-3.32c-.59-.83-1.24-1.77-1.94-2.82s-1.38-2.14-2-3.27-1.26-2.27-1.81-3.41a20.46,20.46,0,0,1-1.28-3.24,8.81,8.81,0,0,1-.42-2.77,2.82,2.82,0,0,1,.78-2,3.89,3.89,0,0,1,1.61-1.05,2.78,2.78,0,0,1,1.54,0,4.47,4.47,0,0,1,1.5.77,14.64,14.64,0,0,1,1.48,1.31A9,9,0,0,1,193.86,29a19,19,0,0,1,1.19,3.21,28.68,28.68,0,0,1,.75,3.53c.19,1.2.33,2.37.44,3.5l.3-.06a14.25,14.25,0,0,1-.11-2.34,2.14,2.14,0,0,1,.54-1.47,3.29,3.29,0,0,1,1.43-.86,3.75,3.75,0,0,1,1.6-.1,4.81,4.81,0,0,1,1.61.55,5.86,5.86,0,0,1,1.46,1.09c.37.37.71.73,1,1.09a9.74,9.74,0,0,1,.81,1.13,8.23,8.23,0,0,1,.63,1.26A9.07,9.07,0,0,1,206,41c.11-.41.22-.82.35-1.24s.23-.84.33-1.29.18-.91.24-1.4.07-.71.08-1.09l-1.17-1.33c-.76-.88-1.54-1.81-2.33-2.8s-1.55-2-2.25-3l-.89-1.28c-.34-.5-.7-1.06-1.07-1.67s-.73-1.25-1.09-1.94a22,22,0,0,1-1-2.1,17.37,17.37,0,0,1-.7-2.15,9.1,9.1,0,0,1-.28-2.08,6,6,0,0,1,.3-1.91,4.36,4.36,0,0,1,1-1.6,2.86,2.86,0,0,1,1.09-.73,2,2,0,0,1,1.08-.07,2.91,2.91,0,0,1,1.06.47,7,7,0,0,1,1.06.88A13.33,13.33,0,0,1,203.58,17a29.81,29.81,0,0,1,1.55,2.73c.47.95.91,1.91,1.3,2.87s.73,1.84,1,2.65.51,1.49.69,2.07.28.95.33,1.13l.65,3.24.42-.1c-.07-.6-.15-1.25-.24-2s-.16-1.4-.22-2.07-.11-1.26-.14-1.8a5.38,5.38,0,0,1,0-1.17,5,5,0,0,1,.42-1.23,4.83,4.83,0,0,1,.92-1.26,1.88,1.88,0,0,1,.73-.44,2,2,0,0,1,.89-.08,2.56,2.56,0,0,1,.95.3,3.62,3.62,0,0,1,1,.71,2.81,2.81,0,0,1,.68,1.12,8.53,8.53,0,0,1,.37,1.45c.08.52.15,1.06.2,1.62s.13,1.11.22,1.63a8.77,8.77,0,0,0,.37,1.47,3.09,3.09,0,0,0,.7,1.13,1,1,0,0,0,.75.37,1.22,1.22,0,0,0,.76-.42,1.35,1.35,0,0,0,.33-.63,4.58,4.58,0,0,0,.14-.91c0-.34,0-.7,0-1.08s0-.76-.07-1.14-.06-.73-.09-1.06a.53.53,0,0,1,0-.12c-.73-1-1.54-2.14-2.45-3.43a5.47,5.47,0,0,1-.36-.52,8.8,8.8,0,0,1-.44-.77,8.54,8.54,0,0,1-.41-.92,4.47,4.47,0,0,1-.25-1,2.63,2.63,0,0,1,0-.93,1.7,1.7,0,0,1,.44-.81,3.27,3.27,0,0,1,1-.69.53.53,0,0,1,.56.06l1.08,1.5,1.19,1.66,1.17,1.63,1,1.41.72,1c.19.25.29.38.29.39a2.18,2.18,0,0,0,.42.33,1.42,1.42,0,0,0,.43.21.91.91,0,0,0,.43,0,.63.63,0,0,0,.37-.19,1.52,1.52,0,0,0,.36-.62,2.45,2.45,0,0,0,.12-.83,3.64,3.64,0,0,0-.18-1,4.81,4.81,0,0,0-.52-1l-4.46-6.61a1,1,0,0,1,0-.88,3.06,3.06,0,0,1,.7-1.06,2.33,2.33,0,0,1,1.08-.68.82.82,0,0,1,.83.17,10.81,10.81,0,0,1,.73.87c.3.38.61.8.95,1.28l1,1.47,1,1.42c.31.44.57.82.81,1.14a6.1,6.1,0,0,0,.52.65c.2.2.39.39.57.55a3,3,0,0,0,.51.38,1,1,0,0,0,.47.13.71.71,0,0,0,.43-.23,2.49,2.49,0,0,0,.46-.7,7.12,7.12,0,0,0,.41-1.06,10.66,10.66,0,0,0,.33-1.24,12.42,12.42,0,0,0,.23-1.31c.06-.43.09-.84.11-1.23a6.22,6.22,0,0,0,0-1l.66.65.57.56c.18.17.36.36.56.54S232,15.7,232.22,15.94ZM187.48,66.47a7.67,7.67,0,0,0-.76-.66c-.3-.24-.61-.47-.94-.71s-.67-.46-1-.69l-1.05-.65c-.79-.48-1.63-1-2.5-1.44.94,1.32,1.91,2.61,2.93,3.89A44.59,44.59,0,0,0,187.48,70a7.83,7.83,0,0,0,1.08.92,4.1,4.1,0,0,0,.83.45,1.46,1.46,0,0,0,.58.12.46.46,0,0,0,.3-.1.9.9,0,0,0,.18-1,4.73,4.73,0,0,0-.65-1.29,14.46,14.46,0,0,0-1.12-1.38C188.25,67.26,187.85,66.84,187.48,66.47Zm1.3-18.72a2.61,2.61,0,0,0-.65,1.09,4.54,4.54,0,0,0-.19,1.41,7.19,7.19,0,0,0,.18,1.56,8.63,8.63,0,0,0,.48,1.57,9.72,9.72,0,0,0,.73,1.44,6.38,6.38,0,0,0,.9,1.15,5.27,5.27,0,0,0,.57.49,2,2,0,0,0,.59.32,1.35,1.35,0,0,0,.59.07,1,1,0,0,0,.54-.29,1.41,1.41,0,0,0,.38-1.08,5.3,5.3,0,0,0-.27-1.41,9.23,9.23,0,0,0-.63-1.4,9.5,9.5,0,0,0-.68-1.06Zm5.34-8.11c-.18-.57-.36-1.18-.52-1.83s-.34-1.32-.53-2-.4-1.38-.63-2.07a21.21,21.21,0,0,0-.77-2.06,16.2,16.2,0,0,0-1-2A11.72,11.72,0,0,0,189.4,28l-.2-.17a1.88,1.88,0,0,0-.37-.21,1.14,1.14,0,0,0-.44-.11.53.53,0,0,0-.42.18.9.9,0,0,0-.14.76,5.8,5.8,0,0,0,.38,1.3c.2.51.46,1.06.77,1.67s.66,1.23,1,1.87.75,1.29,1.15,1.93.79,1.25,1.16,1.81.71,1.08,1,1.54S193.92,39.36,194.12,39.64Zm7-.7a2.74,2.74,0,0,0-.58-.45,1.4,1.4,0,0,0-.65-.22,1.68,1.68,0,0,0-.73.14,2.65,2.65,0,0,0-.82.59,2.82,2.82,0,0,0-.6.92,3.09,3.09,0,0,0-.22,1.2,4.27,4.27,0,0,0,.27,1.42,6.2,6.2,0,0,0,.88,1.62c.33.46.63.87.92,1.25s.54.7.77,1l.74.9q.47-.26.9-.54c.26-.16.52-.34.79-.54a7.43,7.43,0,0,0,.72-.61,1.69,1.69,0,0,0,.45-.89,2.9,2.9,0,0,0,0-1.13,6.07,6.07,0,0,0-.41-1.25,9.78,9.78,0,0,0-.7-1.26,11.09,11.09,0,0,0-.84-1.16A10.7,10.7,0,0,0,201.09,38.94ZM206,29.2c-.38-.75-.74-1.49-1.11-2.23l-1-2.08L203,23.24c-.11-.21-.24-.49-.38-.82l-.47-1.08-.53-1.19c-.19-.4-.38-.79-.57-1.16a10,10,0,0,0-.55-1,3.63,3.63,0,0,0-.52-.7c-.23-.23-.42-.27-.58-.12a1.23,1.23,0,0,0-.38.82,3.26,3.26,0,0,0,.15,1.09,12.56,12.56,0,0,0,.53,1.43c.24.53.5,1.13.78,1.79s.62,1.07,1,1.61.69,1.07,1.05,1.59.73,1,1.09,1.51.72.95,1,1.37c.79,1,1.58,2,2.38,2.9Z"/></pattern></defs><rect class="cls-2" width="1920" height="1080"/></svg>