<svg id="Layer_1" data-name="Layer 1" xmlns="http://www.w3.org/2000/svg" viewBox="0 0 103.27 37.02"><defs><style>.cls-1{fill:#fff;}</style></defs><path class="cls-1" d="M35.85,13.35a3.25,3.25,0,0,0,1.28-.23,2.71,2.71,0,0,0,.89-.59,2.43,2.43,0,0,0,.51-.84,2.86,2.86,0,0,0,.16-1,1.93,1.93,0,0,0-.2-.93A1.68,1.68,0,0,0,38,9.15a2.48,2.48,0,0,0-.79-.36,3.79,3.79,0,0,0-1-.12,3.28,3.28,0,0,0-1.37.26,2.69,2.69,0,0,0-.88.63,2.44,2.44,0,0,0-.47.8,2.32,2.32,0,0,0-.15.76A2.19,2.19,0,0,0,34,12.74,2.63,2.63,0,0,0,35.85,13.35Z" transform="translate(-3.37 -1.18)"/><path class="cls-1" d="M42.73,13.35A3.34,3.34,0,0,0,44,13.12a2.67,2.67,0,0,0,.88-.59,2.16,2.16,0,0,0,.51-.84,2.86,2.86,0,0,0,.16-1,2.06,2.06,0,0,0-.19-.93,1.61,1.61,0,0,0-.54-.64,2.39,2.39,0,0,0-.79-.36,3.71,3.71,0,0,0-1-.12,3.22,3.22,0,0,0-1.37.26,2.58,2.58,0,0,0-.88.63,2.47,2.47,0,0,0-.48.8,2.28,2.28,0,0,0-.14.76,2.19,2.19,0,0,0,.61,1.62A2.63,2.63,0,0,0,42.73,13.35Z" transform="translate(-3.37 -1.18)"/><path class="cls-1" d="M106.63,25c0-.25,0-.5,0-.74s0-.49,0-.75,0-.56,0-.88a5.66,5.66,0,0,1-.65.69c-.27.25-.56.5-.89.76s-.67.49-1,.72-.72.44-1.07.62a7.33,7.33,0,0,1-1,.43,2.35,2.35,0,0,1-.78.16.67.67,0,0,1-.45-.14.81.81,0,0,1-.22-.4,2.53,2.53,0,0,1-.09-.6c0-.22,0-.48,0-.75a5.71,5.71,0,0,1,.09-.78c.06-.38.14-.82.23-1.31s.19-1,.3-1.61.21-1.14.3-1.68.17-1,.23-1.5a8.26,8.26,0,0,0,.08-1.07.77.77,0,0,0-.44-.68,2.32,2.32,0,0,0-1.18-.26,2.8,2.8,0,0,0-1.18.24.92.92,0,0,0-.59.59l-1.45,7.45a4,4,0,0,1-.36,1,3.05,3.05,0,0,1-.53.78,2.19,2.19,0,0,1-.64.48,1.47,1.47,0,0,1-.66.17.64.64,0,0,1-.38-.12,1,1,0,0,1-.26-.3,1.52,1.52,0,0,1-.15-.44,2.07,2.07,0,0,1-.06-.5s0-.16.07-.46S94,23.51,94,23l.27-1.64c.1-.61.2-1.23.3-1.88s.22-1.28.32-1.92.2-1.21.28-1.72q0-.26-.33-.42a3,3,0,0,0-1.11-.2,1.63,1.63,0,0,0-.85.25,2.64,2.64,0,0,0-.65.6,4.11,4.11,0,0,0-.48.82,9.09,9.09,0,0,0-.35.89c-.09.3-.16.57-.22.82s-.09.44-.11.59c-.26,1.48-.48,2.8-.66,4l-.07.08-.65.79c-.23.27-.47.54-.72.8a8.26,8.26,0,0,1-.74.72,3.87,3.87,0,0,1-.71.52,1.31,1.31,0,0,1-.63.2,1.18,1.18,0,0,1-.8-.23,1,1,0,0,1-.26-.75,2.91,2.91,0,0,1,.29-1.23,8.1,8.1,0,0,1,.74-1.24c.29-.42.61-.83,1-1.24s.66-.82,1-1.23a8.36,8.36,0,0,0,.73-1.22,2.73,2.73,0,0,0,.3-1.21,3.5,3.5,0,0,0-.17-1.11,2.61,2.61,0,0,0-.43-.85,1.88,1.88,0,0,0-.66-.54,1.66,1.66,0,0,0-.78-.19,4.43,4.43,0,0,0-1.46.22,4.5,4.5,0,0,0-1.12.55,6,6,0,0,0-.8.78l-1.11,1.3c-.4.49-.82,1-1.24,1.54l-1.15,1.48-.36-.22,1.75-2.61c.09-.15.26-.48.53-1s.58-1.12.93-1.85.72-1.55,1.1-2.46.73-1.84,1.06-2.8a29.51,29.51,0,0,0,.79-2.88A12.59,12.59,0,0,0,87,4.62a6.71,6.71,0,0,0-.12-1.31,2.88,2.88,0,0,0-.4-1,1.93,1.93,0,0,0-.77-.67,2.75,2.75,0,0,0-1.23-.24,4,4,0,0,0-1.76.39,5.46,5.46,0,0,0-1.48,1.08A7.92,7.92,0,0,0,80,4.43a16.32,16.32,0,0,0-1,1.91A21.14,21.14,0,0,0,78.3,8.4c-.22.71-.41,1.39-.57,2s-.3,1.26-.4,1.83-.2,1.06-.27,1.46c-.18,1.13-.34,2.3-.47,3.5s-.24,2.35-.32,3.45c0,.59-.07,1.14-.1,1.68-.27.25-.53.48-.79.68a12.5,12.5,0,0,1-1.11.78c-.36.24-.73.45-1.09.65s-.72.39-1.07.6a8.12,8.12,0,0,0,.71-1.31,7.82,7.82,0,0,0,.43-1.26,9.41,9.41,0,0,0,.21-1.31q.06-.66.06-1.41a5.71,5.71,0,0,0-.25-1.71,4.58,4.58,0,0,0-.72-1.45,3.55,3.55,0,0,0-1.14-1,3,3,0,0,0-1.54-.38,2,2,0,0,0-1.35.62A12.76,12.76,0,0,0,67,17.51l-.24-.17c.69-.83,1.37-1.71,2.06-2.65a28.74,28.74,0,0,0,1.87-2.87,18.49,18.49,0,0,0,1.35-3A8.51,8.51,0,0,0,72.58,6a13.89,13.89,0,0,0-.12-1.87A3.94,3.94,0,0,0,72,2.59a2.58,2.58,0,0,0-1-1,3.55,3.55,0,0,0-1.79-.38A2.64,2.64,0,0,0,67.3,2a8.43,8.43,0,0,0-1.58,2.14,21.16,21.16,0,0,0-1.32,3c-.39,1.14-.75,2.31-1.07,3.51s-.59,2.4-.82,3.58-.43,2.24-.59,3.2c-.23,1.43-.42,2.73-.56,3.9s-.24,2.18-.32,3c0,.24,0,.45,0,.67s-.32.28-.48.4a4.45,4.45,0,0,1-.68.4,1.61,1.61,0,0,1-.65.15.5.5,0,0,1-.53-.38,3.45,3.45,0,0,1-.13-1.08,10.42,10.42,0,0,1,.15-1.71c.1-.6.2-1.2.32-1.8s.23-1.18.32-1.75a9.28,9.28,0,0,0,.15-1.56,2.65,2.65,0,0,0-.08-.72.9.9,0,0,0-.23-.41.7.7,0,0,0-.33-.19,1.86,1.86,0,0,0-.42-.05h-.65l-.38,0a1.61,1.61,0,0,1-.36-.1.8.8,0,0,1-.29-.23l-.24-.33a1,1,0,0,0-.32-.3.87.87,0,0,0-.52-.14,4.83,4.83,0,0,0-2,.44,7.93,7.93,0,0,0-1.85,1.16,10.58,10.58,0,0,0-1.62,1.71c-.22.3-.42.6-.61.9a21.82,21.82,0,0,1-2.68,1,15.61,15.61,0,0,1-2,.46c-.6.1-1.16.16-1.67.2a15.62,15.62,0,0,0-1.58.18L42.41,19l.18-.59c.08-.26.15-.54.23-.84s.15-.56.2-.82a3.38,3.38,0,0,0,.08-.55,1,1,0,0,0-.23-.65.86.86,0,0,0-.74-.3c-.23,0-.47,0-.71,0a3.11,3.11,0,0,0-.69.11,1.93,1.93,0,0,0-.6.28,1.64,1.64,0,0,0-.49.52,6.74,6.74,0,0,0-.47,1.12c-.16.47-.32,1-.48,1.64s-.3,1.29-.45,2-.29,1.42-.41,2.13-.25,1.42-.35,2.11l0,.07a9.85,9.85,0,0,1-1.29.88,2.45,2.45,0,0,1-1.17.36.59.59,0,0,1-.6-.38,3,3,0,0,1-.15-1.05,8.75,8.75,0,0,1,.15-1.52c.1-.56.22-1.13.37-1.73s.3-1.18.47-1.77.32-1.14.46-1.65.27-1,.37-1.38a4.14,4.14,0,0,0,.15-.93.88.88,0,0,0-.22-.61,1.19,1.19,0,0,0-.84-.22,3.55,3.55,0,0,0-.75.08,3.78,3.78,0,0,0-.81.24,2.71,2.71,0,0,0-.69.44,1.32,1.32,0,0,0-.41.66c-.18.73-.38,1.53-.61,2.4s-.45,1.74-.65,2.61c-.15.65-.27,1.26-.39,1.87l-.15-.4-.18-.41c-.66.67-1.27,1.24-1.81,1.72a14.91,14.91,0,0,1-1.47,1.17,7.48,7.48,0,0,1-1.17.67,2.41,2.41,0,0,1-.88.21,1.61,1.61,0,0,1-1.39-.57,2.61,2.61,0,0,1-.41-1.56,13.87,13.87,0,0,1,.31-2.7q.3-1.56.81-3.36l1-.09,1-.1.67-.06.31,0h.11l.1,0L28,18l.58-.06a3.2,3.2,0,0,0,.41-.07,1.12,1.12,0,0,0,.42-.18,1,1,0,0,0,.33-.33.88.88,0,0,0,.13-.51,2,2,0,0,0-.06-.5,1,1,0,0,0-.21-.38,1.07,1.07,0,0,0-.42-.25,2.81,2.81,0,0,0-.72-.08H28.2l-.3,0-1,.08-1.61.11c.23-.76.48-1.51.74-2.27s.51-1.51.77-2.24l.77-2.12c.26-.69.5-1.34.72-1.94a3.7,3.7,0,0,0,.23-1c0-.3.05-.56.05-.78a1.54,1.54,0,0,0-.13-.67,1.17,1.17,0,0,0-.34-.47,1.56,1.56,0,0,0-.51-.27A1.92,1.92,0,0,0,27,4a1.89,1.89,0,0,0-1.3.5,3.6,3.6,0,0,0-.88,1.33q-1,2.52-1.91,5.14t-1.65,5.06l-3.79.2-3.4.21c.27-.89.53-1.76.77-2.62s.44-1.66.62-2.41.31-1.46.42-2.09A10.67,10.67,0,0,0,16,7.74a6.05,6.05,0,0,0-.42-2.39,4.27,4.27,0,0,0-1.12-1.6,4.55,4.55,0,0,0-1.65-.89,6.73,6.73,0,0,0-2-.28,7,7,0,0,0-1.51.18,9.43,9.43,0,0,0-1.65.5,10.55,10.55,0,0,0-1.61.81,8.88,8.88,0,0,0-1.39,1,4.74,4.74,0,0,0-.95,1.27,3.08,3.08,0,0,0-.36,1.45,6.46,6.46,0,0,0,.06,1c0,.26.09.39.17.39a1.34,1.34,0,0,0,.52-.12,2.38,2.38,0,0,0,.62-.4q1-.78,1.8-1.32a12.54,12.54,0,0,1,1.53-.87A8.17,8.17,0,0,1,9.35,6a4.12,4.12,0,0,1,1-.15,2.08,2.08,0,0,1,.91.19,1.8,1.8,0,0,1,.6.53,2.35,2.35,0,0,1,.33.82,4.9,4.9,0,0,1,.11,1,7.74,7.74,0,0,1-.15,1.48,12.76,12.76,0,0,1-.4,1.56c-.27.81-.57,1.63-.88,2.48s-.65,1.72-1,2.63H7l-1.38.05a8.55,8.55,0,0,0-.86-1,1,1,0,0,0-.62-.3c-.3,0-.45.21-.45.64a1.9,1.9,0,0,0,0,.41c0,.14,0,.29.09.47a4.57,4.57,0,0,0,.81,1.38,3.82,3.82,0,0,0,1.12.85,5.1,5.1,0,0,0,1.37.43,9.74,9.74,0,0,0,1.55.12c-.5,1.32-1,2.68-1.47,4.07s-.93,2.83-1.34,4.32a1.76,1.76,0,0,0-.06.46,1.58,1.58,0,0,0,.15.69,1.51,1.51,0,0,0,.42.52,1.77,1.77,0,0,0,.6.34,2,2,0,0,0,.69.12,1.91,1.91,0,0,0,1.22-.65,7.25,7.25,0,0,0,1.4-2.19c.15-.4.32-.89.53-1.46L11.5,24c.25-.69.51-1.43.78-2.21s.54-1.59.81-2.41l3.59-.34c1.2-.11,2.46-.24,3.76-.38-.19.72-.37,1.41-.53,2.06s-.3,1.25-.41,1.79-.2,1-.26,1.47a7.7,7.7,0,0,0-.08,1.07,6.72,6.72,0,0,0,.33,2.19,4.9,4.9,0,0,0,.92,1.62,3.88,3.88,0,0,0,1.37,1,4.21,4.21,0,0,0,1.71.34,5.86,5.86,0,0,0,1.76-.3,10.78,10.78,0,0,0,2-.89,17.18,17.18,0,0,0,2.15-1.47c.37-.3.74-.61,1.11-.95a4.64,4.64,0,0,0,.12.94,2.27,2.27,0,0,0,.47.93,2.09,2.09,0,0,0,.84.59,3.38,3.38,0,0,0,1.28.22A5.91,5.91,0,0,0,35,29a13.52,13.52,0,0,0,1.86-.77l.19-.12c0,.13,0,.26,0,.37,0,.39-.07.67-.07.83a32.34,32.34,0,0,0,.2,3.76,11.34,11.34,0,0,0,.65,2.8A4.12,4.12,0,0,0,39,37.6a2.63,2.63,0,0,0,1.74.6,3.16,3.16,0,0,0,1.91-.57,4.77,4.77,0,0,0,1.31-1.44,8.29,8.29,0,0,0,.82-1.92,16.77,16.77,0,0,0,.44-2c.09-.62.15-1.17.17-1.63s0-.76,0-.89a12.14,12.14,0,0,0-.2-2.16c-.13-.71-.28-1.37-.44-2s-.41-1.34-.65-2a12.44,12.44,0,0,0,1.8-.17,15.81,15.81,0,0,0,1.77-.42l.37-.13a8.74,8.74,0,0,0-.31,2.23,4.81,4.81,0,0,0,.31,1.74,4.18,4.18,0,0,0,.82,1.3,3.54,3.54,0,0,0,1.18.82,3.43,3.43,0,0,0,1.37.28,4.33,4.33,0,0,0,1.32-.21A7.15,7.15,0,0,0,54,28.54a7.49,7.49,0,0,0,1.13-.77,7.64,7.64,0,0,0,.86-.83,5.1,5.1,0,0,0,1.11,1.81,2.25,2.25,0,0,0,1.61.62,3.52,3.52,0,0,0,1.61-.4,7.71,7.71,0,0,0,1.51-1l.3-.26c.31.15.62.3.95.43A16.86,16.86,0,0,0,65.3,29a9,9,0,0,0,2.46.35h.37c.37-.15.72-.3,1-.46l.86-.45a3.63,3.63,0,0,0,.68-.5c.68-.16,1.33-.33,1.94-.53a13.39,13.39,0,0,0,1.76-.69A14,14,0,0,0,76,25.73v.2c0,.46,0,.89,0,1.29a3.37,3.37,0,0,0,.24,1.07,1.65,1.65,0,0,0,.56.73,1.55,1.55,0,0,0,1,.28,1.52,1.52,0,0,0,.83-.23,2.32,2.32,0,0,0,.7-.81l4.3-7.56a4.29,4.29,0,0,1,.87-1.13,1.18,1.18,0,0,1,.64-.32.35.35,0,0,1,.32.19,1,1,0,0,1,.11.5.55.55,0,0,1-.09.3,1.65,1.65,0,0,1-.25.32l-.38.38-.49.48A12.17,12.17,0,0,0,83.38,23a8.92,8.92,0,0,0-.64,1.35,6.78,6.78,0,0,0-.31,1.11,5.61,5.61,0,0,0-.08.82,4.56,4.56,0,0,0,.14,1.11,2.26,2.26,0,0,0,.52,1,2.62,2.62,0,0,0,1,.68,4.83,4.83,0,0,0,1.72.26,6.42,6.42,0,0,0,1.68-.24,8,8,0,0,0,1.68-.65,8.63,8.63,0,0,0,1.22-.77,2.6,2.6,0,0,0,.51,1,1.76,1.76,0,0,0,.75.54,2.49,2.49,0,0,0,.91.16,3.38,3.38,0,0,0,1.21-.24A6.16,6.16,0,0,0,95,28.42a9.83,9.83,0,0,0,1.19-1,12.55,12.55,0,0,0,1.12-1.26,8.91,8.91,0,0,0,.34,1.22,3.6,3.6,0,0,0,.48.94,2.1,2.1,0,0,0,.68.62,1.92,1.92,0,0,0,1,.22,5.32,5.32,0,0,0,1.2-.15,9.8,9.8,0,0,0,1.3-.42,11.71,11.71,0,0,0,1.31-.59c.44-.22.84-.46,1.23-.7s.74-.49,1.06-.73a10.24,10.24,0,0,0,.79-.69ZM42.55,31.41a12.23,12.23,0,0,1-.17,1.68,4.5,4.5,0,0,1-.43,1.3.87.87,0,0,1-.77.53.44.44,0,0,1-.27-.14,1.65,1.65,0,0,1-.31-.47,4.08,4.08,0,0,1-.25-.86,7.16,7.16,0,0,1-.11-1.34,41.37,41.37,0,0,1,.27-4.78c.18-1.54.39-3.07.64-4.58.27.91.51,1.79.72,2.65.09.37.18.75.26,1.14s.17.78.23,1.16.12.75.16,1.1a7,7,0,0,1,.07,1C42.59,30.26,42.58,30.81,42.55,31.41Zm12.6-9.06a8.44,8.44,0,0,1-.25,1.18,8.65,8.65,0,0,1-.52,1.36A4.68,4.68,0,0,1,53.62,26a1.31,1.31,0,0,1-1,.47.82.82,0,0,1-.55-.17,1.15,1.15,0,0,1-.35-.43,2.25,2.25,0,0,1-.19-.62,5.52,5.52,0,0,1,0-.71,6.34,6.34,0,0,1,.17-1.38,8.21,8.21,0,0,1,.48-1.45,8.75,8.75,0,0,1,.73-1.39,6.84,6.84,0,0,1,.93-1.17,4.3,4.3,0,0,1,1.08-.81,2.48,2.48,0,0,1,1.17-.3Zm10.17-7.43c.1-.52.21-1.1.34-1.73s.28-1.29.44-2,.34-1.39.52-2.07.38-1.33.57-1.95.4-1.16.6-1.64a5.13,5.13,0,0,1,.63-1.12Q68.73,4,69,4a.51.51,0,0,1,.4.16,1.38,1.38,0,0,1,.23.36,2.13,2.13,0,0,1,.1.4c0,.13,0,.21,0,.25a11.72,11.72,0,0,1-.33,2,17.56,17.56,0,0,1-.64,2c-.26.65-.55,1.28-.87,1.9s-.64,1.23-1,1.82-.66,1.16-1,1.71-.62,1.07-.89,1.58Zm4.85,6.71c0,.44-.13.89-.22,1.35a11,11,0,0,1-.38,1.31A6.16,6.16,0,0,1,69,25.41a3.05,3.05,0,0,1-.73.78,1.52,1.52,0,0,1-.91.29,5.51,5.51,0,0,1-.89-.07c-.32-.05-.62-.1-.9-.16s-.64-.15-1-.25c0-.34.07-.71.11-1.1s.09-.73.14-1.18.14-.93.22-1.45a6.3,6.3,0,0,1,.5-1.68,4.38,4.38,0,0,1,.78-1.14,2.82,2.82,0,0,1,1-.66,2.69,2.69,0,0,1,1-.22,2.52,2.52,0,0,1,.94.16,1.62,1.62,0,0,1,.59.4,1.51,1.51,0,0,1,.29.58,3.13,3.13,0,0,1,.08.7C70.24,20.78,70.21,21.18,70.17,21.63Zm9.22-2.37c.09-1.16.21-2.34.35-3.54.06-.51.13-1.05.22-1.63s.17-1.16.28-1.75.23-1.18.36-1.78.28-1.17.43-1.72.48-1.21.68-1.73a10.54,10.54,0,0,1,.6-1.32A3.29,3.29,0,0,1,83,5a1.22,1.22,0,0,1,.81-.29c.2,0,.3.16.3.47A3.37,3.37,0,0,1,84,6c-.08.32-.18.67-.3,1s-.26.76-.41,1.16S83,8.93,82.8,9.3s-.28.72-.4,1-.23.59-.3.81c-.14.46-.33,1-.55,1.68l-.7,2.09-.75,2.24C79.84,17.92,79.61,18.62,79.39,19.26Z" transform="translate(-3.37 -1.18)"/></svg>